<svg version="1.1" viewBox="0.0 0.0 600.0 371.0" fill="none" stroke="none" stroke-linecap="square" stroke-miterlimit="10" width="600" height="371" xmlns:xlink="http://www.w3.org/1999/xlink" xmlns="http://www.w3.org/2000/svg"><path fill="#ffffff" d="M0 0L600.0 0L600.0 371.0L0 371.0L0 0Z" fill-rule="nonzero"/><path stroke="#333333" stroke-width="1.0" stroke-linecap="butt" d="M52.5 331.5L581.5 331.5" fill-rule="nonzero"/><path stroke="#cccccc" stroke-width="1.0" stroke-linecap="butt" d="M52.5 271.5L581.5 271.5" fill-rule="nonzero"/><path stroke="#cccccc" stroke-width="1.0" stroke-linecap="butt" d="M52.5 210.5L581.5 210.5" fill-rule="nonzero"/><path stroke="#cccccc" stroke-width="1.0" stroke-linecap="butt" d="M52.5 150.5L581.5 150.5" fill-rule="nonzero"/><path stroke="#cccccc" stroke-width="1.0" stroke-linecap="butt" d="M52.5 89.5L581.5 89.5" fill-rule="nonzero"/><clipPath id="id_0"><path d="M52.55 89.78333L581.45 89.78333L581.45 331.45L52.55 331.45L52.55 89.78333Z" clip-rule="nonzero"/></clipPath><path stroke="#000000" stroke-width="2.0" stroke-linecap="butt" stroke-opacity="0.0" clip-path="url(#id_0)" d="M100.0 331.0L79.0 331.0L79.0 267.0C79.0 265.89542 79.89543 265.0 81.0 265.0L98.0 265.0C99.10457 265.0 100.0 265.89542 100.0 267.0Z" fill-rule="nonzero"/><path fill="#4285f4" clip-path="url(#id_0)" d="M100.0 331.0L79.0 331.0L79.0 267.0C79.0 265.89542 79.89543 265.0 81.0 265.0L98.0 265.0C99.10457 265.0 100.0 265.89542 100.0 267.0Z" fill-rule="nonzero"/><path stroke="#000000" stroke-width="2.0" stroke-linecap="butt" stroke-opacity="0.0" clip-path="url(#id_0)" d="M172.0 331.0L151.0 331.0L151.0 279.0C151.0 277.89542 151.89543 277.0 153.0 277.0L170.0 277.0C171.10457 277.0 172.0 277.89542 172.0 279.0Z" fill-rule="nonzero"/><path fill="#4285f4" clip-path="url(#id_0)" d="M172.0 331.0L151.0 331.0L151.0 279.0C151.0 277.89542 151.89543 277.0 153.0 277.0L170.0 277.0C171.10457 277.0 172.0 277.89542 172.0 279.0Z" fill-rule="nonzero"/><path stroke="#000000" stroke-width="2.0" stroke-linecap="butt" stroke-opacity="0.0" clip-path="url(#id_0)" d="M244.0 331.0L223.0 331.0L223.0 281.0C223.0 279.89542 223.89543 279.0 225.0 279.0L242.0 279.0C243.10457 279.0 244.0 279.89542 244.0 281.0Z" fill-rule="nonzero"/><path fill="#4285f4" clip-path="url(#id_0)" d="M244.0 331.0L223.0 331.0L223.0 281.0C223.0 279.89542 223.89543 279.0 225.0 279.0L242.0 279.0C243.10457 279.0 244.0 279.89542 244.0 281.0Z" fill-rule="nonzero"/><path stroke="#000000" stroke-width="2.0" stroke-linecap="butt" stroke-opacity="0.0" clip-path="url(#id_0)" d="M316.0 331.0L295.0 331.0L295.0 280.0C295.0 278.89542 295.89542 278.0 297.0 278.0L314.0 278.0C315.10458 278.0 316.0 278.89542 316.0 280.0Z" fill-rule="nonzero"/><path fill="#4285f4" clip-path="url(#id_0)" d="M316.0 331.0L295.0 331.0L295.0 280.0C295.0 278.89542 295.89542 278.0 297.0 278.0L314.0 278.0C315.10458 278.0 316.0 278.89542 316.0 280.0Z" fill-rule="nonzero"/><path stroke="#000000" stroke-width="2.0" stroke-linecap="butt" stroke-opacity="0.0" clip-path="url(#id_0)" d="M388.0 331.0L367.0 331.0L367.0 280.0C367.0 278.89542 367.89542 278.0 369.0 278.0L386.0 278.0C387.10458 278.0 388.0 278.89542 388.0 280.0Z" fill-rule="nonzero"/><path fill="#4285f4" clip-path="url(#id_0)" d="M388.0 331.0L367.0 331.0L367.0 280.0C367.0 278.89542 367.89542 278.0 369.0 278.0L386.0 278.0C387.10458 278.0 388.0 278.89542 388.0 280.0Z" fill-rule="nonzero"/><path stroke="#000000" stroke-width="2.0" stroke-linecap="butt" stroke-opacity="0.0" clip-path="url(#id_0)" d="M460.0 331.0L439.0 331.0L439.0 277.0C439.0 275.89542 439.89542 275.0 441.0 275.0L458.0 275.0C459.10458 275.0 460.0 275.89542 460.0 277.0Z" fill-rule="nonzero"/><path fill="#4285f4" clip-path="url(#id_0)" d="M460.0 331.0L439.0 331.0L439.0 277.0C439.0 275.89542 439.89542 275.0 441.0 275.0L458.0 275.0C459.10458 275.0 460.0 275.89542 460.0 277.0Z" fill-rule="nonzero"/><path stroke="#000000" stroke-width="2.0" stroke-linecap="butt" stroke-opacity="0.0" clip-path="url(#id_0)" d="M532.0 331.0L511.0 331.0L511.0 268.0C511.0 266.89542 511.89542 266.0 513.0 266.0L530.0 266.0C531.10455 266.0 532.0 266.89542 532.0 268.0Z" fill-rule="nonzero"/><path fill="#4285f4" clip-path="url(#id_0)" d="M532.0 331.0L511.0 331.0L511.0 268.0C511.0 266.89542 511.89542 266.0 513.0 266.0L530.0 266.0C531.10455 266.0 532.0 266.89542 532.0 268.0Z" fill-rule="nonzero"/><path stroke="#000000" stroke-width="2.0" stroke-linecap="butt" stroke-opacity="0.0" clip-path="url(#id_0)" d="M123.0 331.0L102.0 331.0L102.0 135.0C102.0 133.89543 102.89543 133.0 104.0 133.0L121.0 133.0C122.10457 133.0 123.0 133.89543 123.0 135.0Z" fill-rule="nonzero"/><path fill="#db4437" clip-path="url(#id_0)" d="M123.0 331.0L102.0 331.0L102.0 135.0C102.0 133.89543 102.89543 133.0 104.0 133.0L121.0 133.0C122.10457 133.0 123.0 133.89543 123.0 135.0Z" fill-rule="nonzero"/><path stroke="#000000" stroke-width="2.0" stroke-linecap="butt" stroke-opacity="0.0" clip-path="url(#id_0)" d="M195.0 331.0L174.0 331.0L174.0 162.0C174.0 160.89543 174.89543 160.0 176.0 160.0L193.0 160.0C194.10457 160.0 195.0 160.89543 195.0 162.0Z" fill-rule="nonzero"/><path fill="#db4437" clip-path="url(#id_0)" d="M195.0 331.0L174.0 331.0L174.0 162.0C174.0 160.89543 174.89543 160.0 176.0 160.0L193.0 160.0C194.10457 160.0 195.0 160.89543 195.0 162.0Z" fill-rule="nonzero"/><path stroke="#000000" stroke-width="2.0" stroke-linecap="butt" stroke-opacity="0.0" clip-path="url(#id_0)" d="M267.0 331.0L246.0 331.0L246.0 176.0C246.0 174.89543 246.89543 174.0 248.0 174.0L265.0 174.0C266.10458 174.0 267.0 174.89543 267.0 176.0Z" fill-rule="nonzero"/><path fill="#db4437" clip-path="url(#id_0)" d="M267.0 331.0L246.0 331.0L246.0 176.0C246.0 174.89543 246.89543 174.0 248.0 174.0L265.0 174.0C266.10458 174.0 267.0 174.89543 267.0 176.0Z" fill-rule="nonzero"/><path stroke="#000000" stroke-width="2.0" stroke-linecap="butt" stroke-opacity="0.0" clip-path="url(#id_0)" d="M339.0 331.0L318.0 331.0L318.0 177.0C318.0 175.89543 318.89542 175.0 320.0 175.0L337.0 175.0C338.10458 175.0 339.0 175.89543 339.0 177.0Z" fill-rule="nonzero"/><path fill="#db4437" clip-path="url(#id_0)" d="M339.0 331.0L318.0 331.0L318.0 177.0C318.0 175.89543 318.89542 175.0 320.0 175.0L337.0 175.0C338.10458 175.0 339.0 175.89543 339.0 177.0Z" fill-rule="nonzero"/><path stroke="#000000" stroke-width="2.0" stroke-linecap="butt" stroke-opacity="0.0" clip-path="url(#id_0)" d="M411.0 331.0L390.0 331.0L390.0 163.0C390.0 161.89543 390.89542 161.0 392.0 161.0L409.0 161.0C410.10458 161.0 411.0 161.89543 411.0 163.0Z" fill-rule="nonzero"/><path fill="#db4437" clip-path="url(#id_0)" d="M411.0 331.0L390.0 331.0L390.0 163.0C390.0 161.89543 390.89542 161.0 392.0 161.0L409.0 161.0C410.10458 161.0 411.0 161.89543 411.0 163.0Z" fill-rule="nonzero"/><path stroke="#000000" stroke-width="2.0" stroke-linecap="butt" stroke-opacity="0.0" clip-path="url(#id_0)" d="M483.0 331.0L462.0 331.0L462.0 167.0C462.0 165.89543 462.89542 165.0 464.0 165.0L481.0 165.0C482.10458 165.0 483.0 165.89543 483.0 167.0Z" fill-rule="nonzero"/><path fill="#db4437" clip-path="url(#id_0)" d="M483.0 331.0L462.0 331.0L462.0 167.0C462.0 165.89543 462.89542 165.0 464.0 165.0L481.0 165.0C482.10458 165.0 483.0 165.89543 483.0 167.0Z" fill-rule="nonzero"/><path stroke="#000000" stroke-width="2.0" stroke-linecap="butt" stroke-opacity="0.0" clip-path="url(#id_0)" d="M555.0 331.0L534.0 331.0L534.0 156.0C534.0 154.89543 534.89545 154.0 536.0 154.0L553.0 154.0C554.10455 154.0 555.0 154.89543 555.0 156.0Z" fill-rule="nonzero"/><path fill="#db4437" clip-path="url(#id_0)" d="M555.0 331.0L534.0 331.0L534.0 156.0C534.0 154.89543 534.89545 154.0 536.0 154.0L553.0 154.0C554.10455 154.0 555.0 154.89543 555.0 156.0Z" fill-rule="nonzero"/><path fill="#757575" d="M45.6125 332.3094Q45.6125 334.21564 44.95625 335.15314Q44.315624 336.075 42.925 336.075Q41.565624 336.075 40.909374 335.16876Q40.253124 334.2625 40.221874 332.45L40.221874 331.0125Q40.221874 329.1219 40.8625 328.21564Q41.51875 327.29376 42.909374 327.29376Q44.284374 327.29376 44.940624 328.1844Q45.596874 329.0594 45.6125 330.90314L45.6125 332.3094ZM44.51875 330.825Q44.51875 329.45 44.128124 328.825Q43.753124 328.1844 42.909374 328.1844Q42.08125 328.1844 41.690624 328.825Q41.315624 329.45 41.315624 330.7469L41.315624 332.48126Q41.315624 333.85626 41.70625 334.52814Q42.1125 335.1844 42.925 335.1844Q43.721874 335.1844 44.1125 334.5594Q44.503124 333.9344 44.51875 332.60626L44.51875 330.825Z" fill-rule="nonzero"/><path fill="#757575" d="M22.815624 275.53333L21.7375 275.53333L21.7375 268.31458L19.55 269.11145L19.55 268.12708L22.659374 266.9552L22.815624 266.9552L22.815624 275.53333ZM31.6125 271.8927Q31.6125 273.79895 30.95625 274.73645Q30.315624 275.65833 28.925 275.65833Q27.565624 275.65833 26.909374 274.75208Q26.253124 273.84583 26.221874 272.03333L26.221874 270.59583Q26.221874 268.7052 26.8625 267.79895Q27.51875 266.87708 28.909374 266.87708Q30.284374 266.87708 30.940624 267.7677Q31.596874 268.6427 31.6125 270.48645L31.6125 271.8927ZM30.51875 270.40833Q30.51875 269.03333 30.128124 268.40833Q29.753124 267.7677 28.909374 267.7677Q28.08125 267.7677 27.690624 268.40833Q27.315624 269.03333 27.315624 270.3302L27.315624 272.06458Q27.315624 273.43958 27.70625 274.11145Q28.1125 274.7677 28.925 274.7677Q29.721874 274.7677 30.1125 274.1427Q30.503124 273.5177 30.51875 272.18958L30.51875 270.40833ZM38.6125 271.8927Q38.6125 273.79895 37.95625 274.73645Q37.315624 275.65833 35.925 275.65833Q34.565624 275.65833 33.909374 274.75208Q33.253124 273.84583 33.221874 272.03333L33.221874 270.59583Q33.221874 268.7052 33.8625 267.79895Q34.51875 266.87708 35.909374 266.87708Q37.284374 266.87708 37.940624 267.7677Q38.596874 268.6427 38.6125 270.48645L38.6125 271.8927ZM37.51875 270.40833Q37.51875 269.03333 37.128124 268.40833Q36.753124 267.7677 35.909374 267.7677Q35.08125 267.7677 34.690624 268.40833Q34.315624 269.03333 34.315624 270.3302L34.315624 272.06458Q34.315624 273.43958 34.70625 274.11145Q35.1125 274.7677 35.925 274.7677Q36.721874 274.7677 37.1125 274.1427Q37.503124 273.5177 37.51875 272.18958L37.51875 270.40833ZM45.6125 271.8927Q45.6125 273.79895 44.95625 274.73645Q44.315624 275.65833 42.925 275.65833Q41.565624 275.65833 40.909374 274.75208Q40.253124 273.84583 40.221874 272.03333L40.221874 270.59583Q40.221874 268.7052 40.8625 267.79895Q41.51875 266.87708 42.909374 266.87708Q44.284374 266.87708 44.940624 267.7677Q45.596874 268.6427 45.6125 270.48645L45.6125 271.8927ZM44.51875 270.40833Q44.51875 269.03333 44.128124 268.40833Q43.753124 267.7677 42.909374 267.7677Q42.08125 267.7677 41.690624 268.40833Q41.315624 269.03333 41.315624 270.3302L41.315624 272.06458Q41.315624 273.43958 41.70625 274.11145Q42.1125 274.7677 42.925 274.7677Q43.721874 274.7677 44.1125 274.1427Q44.503124 273.5177 44.51875 272.18958L44.51875 270.40833Z" fill-rule="nonzero"/><path fill="#757575" d="M24.846874 215.11667L19.253124 215.11667L19.253124 214.33542L22.20625 211.05417Q22.8625 210.30417 23.1125 209.85104Q23.3625 209.3823 23.3625 208.8823Q23.3625 208.21042 22.95625 207.78854Q22.565624 207.35104 21.878124 207.35104Q21.08125 207.35104 20.628124 207.8198Q20.175 208.27292 20.175 209.10104L19.096874 209.10104Q19.096874 207.91354 19.846874 207.1948Q20.6125 206.46042 21.878124 206.46042Q23.08125 206.46042 23.76875 207.08542Q24.45625 207.71042 24.45625 208.7573Q24.45625 210.0073 22.846874 211.7573L20.565624 214.22604L24.846874 214.22604L24.846874 215.11667ZM31.6125 211.47604Q31.6125 213.3823 30.95625 214.3198Q30.315624 215.24167 28.925 215.24167Q27.565624 215.24167 26.909374 214.33542Q26.253124 213.42917 26.221874 211.61667L26.221874 210.17917Q26.221874 208.28854 26.8625 207.3823Q27.51875 206.46042 28.909374 206.46042Q30.284374 206.46042 30.940624 207.35104Q31.596874 208.22604 31.6125 210.0698L31.6125 211.47604ZM30.51875 209.99167Q30.51875 208.61667 30.128124 207.99167Q29.753124 207.35104 28.909374 207.35104Q28.08125 207.35104 27.690624 207.99167Q27.315624 208.61667 27.315624 209.91354L27.315624 211.64792Q27.315624 213.02292 27.70625 213.6948Q28.1125 214.35104 28.925 214.35104Q29.721874 214.35104 30.1125 213.72604Q30.503124 213.10104 30.51875 211.77292L30.51875 209.99167ZM38.6125 211.47604Q38.6125 213.3823 37.95625 214.3198Q37.315624 215.24167 35.925 215.24167Q34.565624 215.24167 33.909374 214.33542Q33.253124 213.42917 33.221874 211.61667L33.221874 210.17917Q33.221874 208.28854 33.8625 207.3823Q34.51875 206.46042 35.909374 206.46042Q37.284374 206.46042 37.940624 207.35104Q38.596874 208.22604 38.6125 210.0698L38.6125 211.47604ZM37.51875 209.99167Q37.51875 208.61667 37.128124 207.99167Q36.753124 207.35104 35.909374 207.35104Q35.08125 207.35104 34.690624 207.99167Q34.315624 208.61667 34.315624 209.91354L34.315624 211.64792Q34.315624 213.02292 34.70625 213.6948Q35.1125 214.35104 35.925 214.35104Q36.721874 214.35104 37.1125 213.72604Q37.503124 213.10104 37.51875 211.77292L37.51875 209.99167ZM45.6125 211.47604Q45.6125 213.3823 44.95625 214.3198Q44.315624 215.24167 42.925 215.24167Q41.565624 215.24167 40.909374 214.33542Q40.253124 213.42917 40.221874 211.61667L40.221874 210.17917Q40.221874 208.28854 40.8625 207.3823Q41.51875 206.46042 42.909374 206.46042Q44.284374 206.46042 44.940624 207.35104Q45.596874 208.22604 45.6125 210.0698L45.6125 211.47604ZM44.51875 209.99167Q44.51875 208.61667 44.128124 207.99167Q43.753124 207.35104 42.909374 207.35104Q42.08125 207.35104 41.690624 207.99167Q41.315624 208.61667 41.315624 209.91354L41.315624 211.64792Q41.315624 213.02292 41.70625 213.6948Q42.1125 214.35104 42.925 214.35104Q43.721874 214.35104 44.1125 213.72604Q44.503124 213.10104 44.51875 211.77292L44.51875 209.99167Z" fill-rule="nonzero"/><path fill="#757575" d="M20.83125 149.90312L21.64375 149.90312Q22.425 149.8875 22.8625 149.49687Q23.3 149.10625 23.3 148.43437Q23.3 146.93437 21.8 146.93437Q21.096874 146.93437 20.675 147.34062Q20.26875 147.74687 20.26875 148.40312L19.175 148.40312Q19.175 147.3875 19.909374 146.71562Q20.659374 146.04375 21.8 146.04375Q23.003124 146.04375 23.690624 146.68437Q24.378124 147.325 24.378124 148.46562Q24.378124 149.02812 24.01875 149.54375Q23.659374 150.05937 23.034374 150.325Q23.7375 150.54375 24.1125 151.05937Q24.503124 151.575 24.503124 152.325Q24.503124 153.46562 23.753124 154.15312Q23.003124 154.825 21.8 154.825Q20.6125 154.825 19.846874 154.16875Q19.096874 153.5125 19.096874 152.45L20.190624 152.45Q20.190624 153.12187 20.628124 153.52812Q21.065624 153.93437 21.815624 153.93437Q22.596874 153.93437 23.003124 153.52812Q23.425 153.10625 23.425 152.34062Q23.425 151.60625 22.971874 151.21562Q22.51875 150.80937 21.64375 150.79375L20.83125 150.79375L20.83125 149.90312ZM31.6125 151.05937Q31.6125 152.96562 30.95625 153.90312Q30.315624 154.825 28.925 154.825Q27.565624 154.825 26.909374 153.91875Q26.253124 153.0125 26.221874 151.2L26.221874 149.7625Q26.221874 147.87187 26.8625 146.96562Q27.51875 146.04375 28.909374 146.04375Q30.284374 146.04375 30.940624 146.93437Q31.596874 147.80937 31.6125 149.65312L31.6125 151.05937ZM30.51875 149.575Q30.51875 148.2 30.128124 147.575Q29.753124 146.93437 28.909374 146.93437Q28.08125 146.93437 27.690624 147.575Q27.315624 148.2 27.315624 149.49687L27.315624 151.23125Q27.315624 152.60625 27.70625 153.27812Q28.1125 153.93437 28.925 153.93437Q29.721874 153.93437 30.1125 153.30937Q30.503124 152.68437 30.51875 151.35625L30.51875 149.575ZM38.6125 151.05937Q38.6125 152.96562 37.95625 153.90312Q37.315624 154.825 35.925 154.825Q34.565624 154.825 33.909374 153.91875Q33.253124 153.0125 33.221874 151.2L33.221874 149.7625Q33.221874 147.87187 33.8625 146.96562Q34.51875 146.04375 35.909374 146.04375Q37.284374 146.04375 37.940624 146.93437Q38.596874 147.80937 38.6125 149.65312L38.6125 151.05937ZM37.51875 149.575Q37.51875 148.2 37.128124 147.575Q36.753124 146.93437 35.909374 146.93437Q35.08125 146.93437 34.690624 147.575Q34.315624 148.2 34.315624 149.49687L34.315624 151.23125Q34.315624 152.60625 34.70625 153.27812Q35.1125 153.93437 35.925 153.93437Q36.721874 153.93437 37.1125 153.30937Q37.503124 152.68437 37.51875 151.35625L37.51875 149.575ZM45.6125 151.05937Q45.6125 152.96562 44.95625 153.90312Q44.315624 154.825 42.925 154.825Q41.565624 154.825 40.909374 153.91875Q40.253124 153.0125 40.221874 151.2L40.221874 149.7625Q40.221874 147.87187 40.8625 146.96562Q41.51875 146.04375 42.909374 146.04375Q44.284374 146.04375 44.940624 146.93437Q45.596874 147.80937 45.6125 149.65312L45.6125 151.05937ZM44.51875 149.575Q44.51875 148.2 44.128124 147.575Q43.753124 146.93437 42.909374 146.93437Q42.08125 146.93437 41.690624 147.575Q41.315624 148.2 41.315624 149.49687L41.315624 151.23125Q41.315624 152.60625 41.70625 153.27812Q42.1125 153.93437 42.925 153.93437Q43.721874 153.93437 44.1125 153.30937Q44.503124 152.68437 44.51875 151.35625L44.51875 149.575Z" fill-rule="nonzero"/><path fill="#757575" d="M23.83125 91.42396L25.01875 91.42396L25.01875 92.29896L23.83125 92.29896L23.83125 94.28333L22.753124 94.28333L22.753124 92.29896L18.8625 92.29896L18.8625 91.65833L22.675 85.75208L23.83125 85.75208L23.83125 91.42396ZM20.096874 91.42396L22.753124 91.42396L22.753124 87.23646L22.6125 87.47083L20.096874 91.42396ZM31.6125 90.64271Q31.6125 92.54896 30.95625 93.48646Q30.315624 94.40833 28.925 94.40833Q27.565624 94.40833 26.909374 93.50208Q26.253124 92.59583 26.221874 90.78333L26.221874 89.34583Q26.221874 87.45521 26.8625 86.54896Q27.51875 85.62708 28.909374 85.62708Q30.284374 85.62708 30.940624 86.51771Q31.596874 87.39271 31.6125 89.23646L31.6125 90.64271ZM30.51875 89.15833Q30.51875 87.78333 30.128124 87.15833Q29.753124 86.51771 28.909374 86.51771Q28.08125 86.51771 27.690624 87.15833Q27.315624 87.78333 27.315624 89.08021L27.315624 90.81458Q27.315624 92.18958 27.70625 92.86146Q28.1125 93.51771 28.925 93.51771Q29.721874 93.51771 30.1125 92.89271Q30.503124 92.26771 30.51875 90.93958L30.51875 89.15833ZM38.6125 90.64271Q38.6125 92.54896 37.95625 93.48646Q37.315624 94.40833 35.925 94.40833Q34.565624 94.40833 33.909374 93.50208Q33.253124 92.59583 33.221874 90.78333L33.221874 89.34583Q33.221874 87.45521 33.8625 86.54896Q34.51875 85.62708 35.909374 85.62708Q37.284374 85.62708 37.940624 86.51771Q38.596874 87.39271 38.6125 89.23646L38.6125 90.64271ZM37.51875 89.15833Q37.51875 87.78333 37.128124 87.15833Q36.753124 86.51771 35.909374 86.51771Q35.08125 86.51771 34.690624 87.15833Q34.315624 87.78333 34.315624 89.08021L34.315624 90.81458Q34.315624 92.18958 34.70625 92.86146Q35.1125 93.51771 35.925 93.51771Q36.721874 93.51771 37.1125 92.89271Q37.503124 92.26771 37.51875 90.93958L37.51875 89.15833ZM45.6125 90.64271Q45.6125 92.54896 44.95625 93.48646Q44.315624 94.40833 42.925 94.40833Q41.565624 94.40833 40.909374 93.50208Q40.253124 92.59583 40.221874 90.78333L40.221874 89.34583Q40.221874 87.45521 40.8625 86.54896Q41.51875 85.62708 42.909374 85.62708Q44.284374 85.62708 44.940624 86.51771Q45.596874 87.39271 45.6125 89.23646L45.6125 90.64271ZM44.51875 89.15833Q44.51875 87.78333 44.128124 87.15833Q43.753124 86.51771 42.909374 86.51771Q42.08125 86.51771 41.690624 87.15833Q41.315624 87.78333 41.315624 89.08021L41.315624 90.81458Q41.315624 92.18958 41.70625 92.86146Q42.1125 93.51771 42.925 93.51771Q43.721874 93.51771 44.1125 92.89271Q44.503124 92.26771 44.51875 90.93958L44.51875 89.15833Z" fill-rule="nonzero"/><path fill="#757575" d="M84.12245 345.65314Q82.68495 345.23126 82.01308 344.6219Q81.35683 344.0125 81.35683 343.1219Q81.35683 342.1219 82.1537 341.46564Q82.9662 340.79376 84.26308 340.79376Q85.13808 340.79376 85.82558 341.1375Q86.51308 341.48126 86.88808 342.075Q87.2787 342.66876 87.2787 343.3875L86.13808 343.3875Q86.13808 342.60626 85.63808 342.16876Q85.1537 341.73126 84.26308 341.73126Q83.43495 341.73126 82.9662 342.10626Q82.49745 342.46564 82.49745 343.10626Q82.49745 343.6375 82.93495 343.9969Q83.38808 344.35626 84.45058 344.65314Q85.51308 344.95 86.10683 345.3094Q86.7162 345.66876 86.99745 346.15314Q87.29433 346.6375 87.29433 347.27814Q87.29433 348.325 86.48183 348.95Q85.66933 349.575 84.32558 349.575Q83.43495 349.575 82.66933 349.23126Q81.91933 348.8875 81.49745 348.3094Q81.0912 347.71564 81.0912 346.98126L82.2162 346.98126Q82.2162 347.7469 82.79433 348.2Q83.37245 348.65314 84.32558 348.65314Q85.2162 348.65314 85.68495 348.29376Q86.1537 347.91876 86.1537 347.29376Q86.1537 346.66876 85.7162 346.325Q85.2787 345.98126 84.12245 345.65314ZM92.35683 348.825Q91.73183 349.575 90.49745 349.575Q89.48183 349.575 88.95058 348.98126Q88.41933 348.3875 88.41933 347.23126L88.41933 343.10626L89.49745 343.10626L89.49745 347.2Q89.49745 348.65314 90.66933 348.65314Q91.91933 348.65314 92.32558 347.71564L92.32558 343.10626L93.41933 343.10626L93.41933 349.45L92.38808 349.45L92.35683 348.825ZM96.4662 343.10626L96.49745 343.90314Q97.23183 342.9969 98.4037 342.9969Q100.41933 342.9969 100.43495 345.2625L100.43495 349.45L99.3412 349.45L99.3412 345.2469Q99.3412 344.575 99.0287 344.2469Q98.73183 343.91876 98.07558 343.91876Q97.54433 343.91876 97.13808 344.2Q96.74745 344.48126 96.5287 344.9344L96.5287 349.45L95.45058 349.45L95.45058 343.10626L96.4662 343.10626ZM102.18495 346.23126Q102.18495 344.7625 102.87245 343.8875Q103.55995 342.9969 104.68495 342.9969Q105.79433 342.9969 106.45058 343.7469L106.45058 340.45L107.5287 340.45L107.5287 349.45L106.5287 349.45L106.48183 348.7625Q105.82558 349.575 104.66933 349.575Q103.57558 349.575 102.87245 348.66876Q102.18495 347.7625 102.18495 346.3094L102.18495 346.23126ZM103.26308 346.35626Q103.26308 347.4344 103.70058 348.04376Q104.1537 348.65314 104.93495 348.65314Q105.9662 348.65314 106.45058 347.71564L106.45058 344.8094Q105.9662 343.91876 104.95058 343.91876Q104.1537 343.91876 103.70058 344.52814Q103.26308 345.1375 103.26308 346.35626ZM113.35683 349.45Q113.26308 349.2625 113.20058 348.77814Q112.45058 349.575 111.4037 349.575Q110.4662 349.575 109.85683 349.04376Q109.26308 348.5125 109.26308 347.6844Q109.26308 346.7 110.01308 346.15314Q110.76308 345.60626 112.13808 345.60626L113.18495 345.60626L113.18495 345.10626Q113.18495 344.54376 112.8412 344.21564Q112.51308 343.8719 111.8412 343.8719Q111.26308 343.8719 110.87245 344.16876Q110.48183 344.45 110.48183 344.8719L109.38808 344.8719Q109.38808 344.3875 109.7162 343.95Q110.05995 343.5125 110.63808 343.2625Q111.2162 342.9969 111.9037 342.9969Q113.01308 342.9969 113.62245 343.54376Q114.24745 344.09064 114.2787 345.04376L114.2787 347.96564Q114.2787 348.84064 114.49745 349.35626L114.49745 349.45L113.35683 349.45ZM111.55995 348.6219Q112.07558 348.6219 112.5287 348.35626Q112.98183 348.09064 113.18495 347.66876L113.18495 346.3719L112.3412 346.3719Q110.3412 346.3719 110.3412 347.54376Q110.3412 348.04376 110.68495 348.34064Q111.0287 348.6219 111.55995 348.6219ZM118.51308 347.85626L119.99745 343.10626L121.1537 343.10626L118.60683 350.4344Q118.01308 352.0125 116.73183 352.0125L116.51308 351.9969L116.12245 351.91876L116.12245 351.04376L116.4037 351.0594Q116.9662 351.0594 117.26308 350.84064Q117.57558 350.6219 117.7787 350.02814L118.01308 349.3719L115.74745 343.10626L116.93495 343.10626L118.51308 347.85626Z" fill-rule="nonzero"/><path fill="#757575" d="M153.51913 340.91876L156.31601 347.8719L159.09726 340.91876L160.56601 340.91876L160.56601 349.45L159.44101 349.45L159.44101 346.1219L159.55038 342.54376L156.73788 349.45L155.87851 349.45L153.08163 342.5594L153.19101 346.1219L153.19101 349.45L152.06601 349.45L152.06601 340.91876L153.51913 340.91876ZM161.61288 346.21564Q161.61288 345.29376 161.97226 344.54376Q162.34726 343.79376 163.00351 343.40314Q163.65976 342.9969 164.48788 342.9969Q165.78476 342.9969 166.58163 343.8875Q167.39413 344.77814 167.39413 346.27814L167.39413 346.35626Q167.39413 347.27814 167.03476 348.0125Q166.67538 348.7469 166.01913 349.16876Q165.36288 349.575 164.50351 349.575Q163.22226 349.575 162.40976 348.6844Q161.61288 347.77814 161.61288 346.29376L161.61288 346.21564ZM162.70663 346.35626Q162.70663 347.40314 163.19101 348.04376Q163.69101 348.6844 164.50351 348.6844Q165.33163 348.6844 165.81601 348.04376Q166.30038 347.3875 166.30038 346.21564Q166.30038 345.1844 165.80038 344.54376Q165.31601 343.8875 164.48788 343.8875Q163.69101 343.8875 163.19101 344.52814Q162.70663 345.15314 162.70663 346.35626ZM169.92538 343.10626L169.95663 343.90314Q170.69101 342.9969 171.86288 342.9969Q173.87851 342.9969 173.89413 345.2625L173.89413 349.45L172.80038 349.45L172.80038 345.2469Q172.80038 344.575 172.48788 344.2469Q172.19101 343.91876 171.53476 343.91876Q171.00351 343.91876 170.59726 344.2Q170.20663 344.48126 169.98788 344.9344L169.98788 349.45L168.90976 349.45L168.90976 343.10626L169.92538 343.10626ZM175.64413 346.23126Q175.64413 344.7625 176.33163 343.8875Q177.01913 342.9969 178.14413 342.9969Q179.25351 342.9969 179.90976 343.7469L179.90976 340.45L180.98788 340.45L180.98788 349.45L179.98788 349.45L179.94101 348.7625Q179.28476 349.575 178.12851 349.575Q177.03476 349.575 176.33163 348.66876Q175.64413 347.7625 175.64413 346.3094L175.64413 346.23126ZM176.72226 346.35626Q176.72226 347.4344 177.15976 348.04376Q177.61288 348.65314 178.39413 348.65314Q179.42538 348.65314 179.90976 347.71564L179.90976 344.8094Q179.42538 343.91876 178.40976 343.91876Q177.61288 343.91876 177.15976 344.52814Q176.72226 345.1375 176.72226 346.35626ZM186.81601 349.45Q186.72226 349.2625 186.65976 348.77814Q185.90976 349.575 184.86288 349.575Q183.92538 349.575 183.31601 349.04376Q182.72226 348.5125 182.72226 347.6844Q182.72226 346.7 183.47226 346.15314Q184.22226 345.60626 185.59726 345.60626L186.64413 345.60626L186.64413 345.10626Q186.64413 344.54376 186.30038 344.21564Q185.97226 343.8719 185.30038 343.8719Q184.72226 343.8719 184.33163 344.16876Q183.94101 344.45 183.94101 344.8719L182.84726 344.8719Q182.84726 344.3875 183.17538 343.95Q183.51913 343.5125 184.09726 343.2625Q184.67538 342.9969 185.36288 342.9969Q186.47226 342.9969 187.08163 343.54376Q187.70663 344.09064 187.73788 345.04376L187.73788 347.96564Q187.73788 348.84064 187.95663 349.35626L187.95663 349.45L186.81601 349.45ZM185.01913 348.6219Q185.53476 348.6219 185.98788 348.35626Q186.44101 348.09064 186.64413 347.66876L186.64413 346.3719L185.80038 346.3719Q183.80038 346.3719 183.80038 347.54376Q183.80038 348.04376 184.14413 348.34064Q184.48788 348.6219 185.01913 348.6219ZM191.97226 347.85626L193.45663 343.10626L194.61288 343.10626L192.06601 350.4344Q191.47226 352.0125 190.19101 352.0125L189.97226 351.9969L189.58163 351.91876L189.58163 351.04376L189.86288 351.0594Q190.42538 351.0594 190.72226 350.84064Q191.03476 350.6219 191.23788 350.02814L191.47226 349.3719L189.20663 343.10626L190.39413 343.10626L191.97226 347.85626Z" fill-rule="nonzero"/><path fill="#757575" d="M228.93144 341.84064L226.18144 341.84064L226.18144 349.45L225.07207 349.45L225.07207 341.84064L222.32207 341.84064L222.32207 340.91876L228.93144 340.91876L228.93144 341.84064ZM233.77519 348.825Q233.15019 349.575 231.91582 349.575Q230.90019 349.575 230.36894 348.98126Q229.83769 348.3875 229.83769 347.23126L229.83769 343.10626L230.91582 343.10626L230.91582 347.2Q230.91582 348.65314 232.08769 348.65314Q233.33769 348.65314 233.74394 347.71564L233.74394 343.10626L234.83769 343.10626L234.83769 349.45L233.80644 349.45L233.77519 348.825ZM239.49394 349.575Q238.19707 349.575 237.38457 348.73126Q236.58769 347.8719 236.58769 346.45L236.58769 346.2625Q236.58769 345.3094 236.94707 344.575Q237.30644 343.825 237.94707 343.41876Q238.60332 342.9969 239.35332 342.9969Q240.58769 342.9969 241.27519 343.8094Q241.96269 344.6219 241.96269 346.1375L241.96269 346.59064L237.66582 346.59064Q237.69707 347.52814 238.21269 348.10626Q238.74394 348.6844 239.55644 348.6844Q240.11894 348.6844 240.50957 348.45Q240.91582 348.21564 241.22832 347.825L241.88457 348.34064Q241.08769 349.575 239.49394 349.575ZM239.35332 343.8875Q238.69707 343.8875 238.24394 344.3719Q237.80644 344.84064 237.71269 345.7L240.88457 345.7L240.88457 345.6219Q240.83769 344.79376 240.43144 344.34064Q240.04082 343.8875 239.35332 343.8875ZM246.55644 347.7625Q246.55644 347.325 246.21269 347.09064Q245.88457 346.84064 245.05644 346.66876Q244.24394 346.4969 243.75957 346.2469Q243.27519 345.9969 243.04082 345.66876Q242.82207 345.325 242.82207 344.85626Q242.82207 344.075 243.47832 343.54376Q244.13457 342.9969 245.16582 342.9969Q246.24394 342.9969 246.90019 343.5594Q247.57207 344.10626 247.57207 344.96564L246.49394 344.96564Q246.49394 344.52814 246.10332 344.21564Q245.72832 343.8875 245.16582 343.8875Q244.57207 343.8875 244.22832 344.15314Q243.90019 344.40314 243.90019 344.8094Q243.90019 345.2 244.21269 345.40314Q244.52519 345.60626 245.33769 345.79376Q246.15019 345.96564 246.65019 346.21564Q247.15019 346.46564 247.38457 346.825Q247.63457 347.1844 247.63457 347.6844Q247.63457 348.54376 246.94707 349.0594Q246.27519 349.575 245.19707 349.575Q244.43144 349.575 243.83769 349.3094Q243.25957 349.02814 242.93144 348.54376Q242.60332 348.0594 242.60332 347.4969L243.68144 347.4969Q243.71269 348.04376 244.11894 348.3719Q244.52519 348.6844 245.19707 348.6844Q245.80644 348.6844 246.18144 348.4344Q246.55644 348.1844 246.55644 347.7625ZM248.60332 346.23126Q248.60332 344.7625 249.29082 343.8875Q249.97832 342.9969 251.10332 342.9969Q252.21269 342.9969 252.86894 343.7469L252.86894 340.45L253.94707 340.45L253.94707 349.45L252.94707 349.45L252.90019 348.7625Q252.24394 349.575 251.08769 349.575Q249.99394 349.575 249.29082 348.66876Q248.60332 347.7625 248.60332 346.3094L248.60332 346.23126ZM249.68144 346.35626Q249.68144 347.4344 250.11894 348.04376Q250.57207 348.65314 251.35332 348.65314Q252.38457 348.65314 252.86894 347.71564L252.86894 344.8094Q252.38457 343.91876 251.36894 343.91876Q250.57207 343.91876 250.11894 344.52814Q249.68144 345.1375 249.68144 346.35626ZM259.7752 349.45Q259.68146 349.2625 259.61896 348.77814Q258.86896 349.575 257.82208 349.575Q256.88458 349.575 256.2752 349.04376Q255.68144 348.5125 255.68144 347.6844Q255.68144 346.7 256.43146 346.15314Q257.18146 345.60626 258.55646 345.60626L259.60333 345.60626L259.60333 345.10626Q259.60333 344.54376 259.25958 344.21564Q258.93146 343.8719 258.25958 343.8719Q257.68146 343.8719 257.29083 344.16876Q256.9002 344.45 256.9002 344.8719L255.80644 344.8719Q255.80644 344.3875 256.13458 343.95Q256.47833 343.5125 257.05646 343.2625Q257.63458 342.9969 258.32208 342.9969Q259.43146 342.9969 260.04083 343.54376Q260.66583 344.09064 260.69708 345.04376L260.69708 347.96564Q260.69708 348.84064 260.91583 349.35626L260.91583 349.45L259.7752 349.45ZM257.97833 348.6219Q258.49396 348.6219 258.94708 348.35626Q259.4002 348.09064 259.60333 347.66876L259.60333 346.3719L258.75958 346.3719Q256.75958 346.3719 256.75958 347.54376Q256.75958 348.04376 257.10333 348.34064Q257.44708 348.6219 257.97833 348.6219ZM264.93146 347.85626L266.41583 343.10626L267.57208 343.10626L265.0252 350.4344Q264.43146 352.0125 263.1502 352.0125L262.93146 351.9969L262.54083 351.91876L262.54083 351.04376L262.82208 351.0594Q263.38458 351.0594 263.68146 350.84064Q263.99396 350.6219 264.19708 350.02814L264.43146 349.3719L262.16583 343.10626L263.35333 343.10626L264.93146 347.85626Z" fill-rule="nonzero"/><path fill="#757575" d="M288.32812 346.7625L288.5 347.8875L288.73438 346.8719L290.42188 340.91876L291.375 340.91876L293.01562 346.8719L293.25 347.90314L293.4375 346.7469L294.76562 340.91876L295.89062 340.91876L293.82812 349.45L292.79688 349.45L291.03125 343.23126L290.90625 342.575L290.76562 343.23126L288.95312 349.45L287.92188 349.45L285.85938 340.91876L286.98438 340.91876L288.32812 346.7625ZM299.95312 349.575Q298.65625 349.575 297.84375 348.73126Q297.04688 347.8719 297.04688 346.45L297.04688 346.2625Q297.04688 345.3094 297.40625 344.575Q297.76562 343.825 298.40625 343.41876Q299.0625 342.9969 299.8125 342.9969Q301.04688 342.9969 301.73438 343.8094Q302.42188 344.6219 302.42188 346.1375L302.42188 346.59064L298.125 346.59064Q298.15625 347.52814 298.67188 348.10626Q299.20312 348.6844 300.01562 348.6844Q300.57812 348.6844 300.96875 348.45Q301.375 348.21564 301.6875 347.825L302.34375 348.34064Q301.54688 349.575 299.95312 349.575ZM299.8125 343.8875Q299.15625 343.8875 298.70312 344.3719Q298.26562 344.84064 298.17188 345.7L301.34375 345.7L301.34375 345.6219Q301.29688 344.79376 300.89062 344.34064Q300.5 343.8875 299.8125 343.8875ZM303.0625 346.23126Q303.0625 344.7625 303.75 343.8875Q304.4375 342.9969 305.5625 342.9969Q306.67188 342.9969 307.32812 343.7469L307.32812 340.45L308.40625 340.45L308.40625 349.45L307.40625 349.45L307.35938 348.7625Q306.70312 349.575 305.54688 349.575Q304.45312 349.575 303.75 348.66876Q303.0625 347.7625 303.0625 346.3094L303.0625 346.23126ZM304.14062 346.35626Q304.14062 347.4344 304.57812 348.04376Q305.03125 348.65314 305.8125 348.65314Q306.84375 348.65314 307.32812 347.71564L307.32812 344.8094Q306.84375 343.91876 305.82812 343.91876Q305.03125 343.91876 304.57812 344.52814Q304.14062 345.1375 304.14062 346.35626ZM311.34375 343.10626L311.375 343.90314Q312.10938 342.9969 313.28125 342.9969Q315.29688 342.9969 315.3125 345.2625L315.3125 349.45L314.21875 349.45L314.21875 345.2469Q314.21875 344.575 313.90625 344.2469Q313.60938 343.91876 312.95312 343.91876Q312.42188 343.91876 312.01562 344.2Q311.625 344.48126 311.40625 344.9344L311.40625 349.45L310.32812 349.45L310.32812 343.10626L311.34375 343.10626ZM319.95312 349.575Q318.65625 349.575 317.84375 348.73126Q317.04688 347.8719 317.04688 346.45L317.04688 346.2625Q317.04688 345.3094 317.40625 344.575Q317.76562 343.825 318.40625 343.41876Q319.0625 342.9969 319.8125 342.9969Q321.04688 342.9969 321.73438 343.8094Q322.42188 344.6219 322.42188 346.1375L322.42188 346.59064L318.125 346.59064Q318.15625 347.52814 318.67188 348.10626Q319.20312 348.6844 320.01562 348.6844Q320.57812 348.6844 320.96875 348.45Q321.375 348.21564 321.6875 347.825L322.34375 348.34064Q321.54688 349.575 319.95312 349.575ZM319.8125 343.8875Q319.15625 343.8875 318.70312 344.3719Q318.26562 344.84064 318.17188 345.7L321.34375 345.7L321.34375 345.6219Q321.29688 344.79376 320.89062 344.34064Q320.5 343.8875 319.8125 343.8875ZM327.01562 347.7625Q327.01562 347.325 326.67188 347.09064Q326.34375 346.84064 325.51562 346.66876Q324.70312 346.4969 324.21875 346.2469Q323.73438 345.9969 323.5 345.66876Q323.28125 345.325 323.28125 344.85626Q323.28125 344.075 323.9375 343.54376Q324.59375 342.9969 325.625 342.9969Q326.70312 342.9969 327.35938 343.5594Q328.03125 344.10626 328.03125 344.96564L326.95312 344.96564Q326.95312 344.52814 326.5625 344.21564Q326.1875 343.8875 325.625 343.8875Q325.03125 343.8875 324.6875 344.15314Q324.35938 344.40314 324.35938 344.8094Q324.35938 345.2 324.67188 345.40314Q324.98438 345.60626 325.79688 345.79376Q326.60938 345.96564 327.10938 346.21564Q327.60938 346.46564 327.84375 346.825Q328.09375 347.1844 328.09375 347.6844Q328.09375 348.54376 327.40625 349.0594Q326.73438 349.575 325.65625 349.575Q324.89062 349.575 324.29688 349.3094Q323.71875 349.02814 323.39062 348.54376Q323.0625 348.0594 323.0625 347.4969L324.14062 347.4969Q324.17188 348.04376 324.57812 348.3719Q324.98438 348.6844 325.65625 348.6844Q326.26562 348.6844 326.64062 348.4344Q327.01562 348.1844 327.01562 347.7625ZM329.0625 346.23126Q329.0625 344.7625 329.75 343.8875Q330.4375 342.9969 331.5625 342.9969Q332.67188 342.9969 333.32812 343.7469L333.32812 340.45L334.40625 340.45L334.40625 349.45L333.40625 349.45L333.35938 348.7625Q332.70312 349.575 331.54688 349.575Q330.45312 349.575 329.75 348.66876Q329.0625 347.7625 329.0625 346.3094L329.0625 346.23126ZM330.14062 346.35626Q330.14062 347.4344 330.57812 348.04376Q331.03125 348.65314 331.8125 348.65314Q332.84375 348.65314 333.32812 347.71564L333.32812 344.8094Q332.84375 343.91876 331.82812 343.91876Q331.03125 343.91876 330.57812 344.52814Q330.14062 345.1375 330.14062 346.35626ZM340.23438 349.45Q340.14062 349.2625 340.07812 348.77814Q339.32812 349.575 338.28125 349.575Q337.34375 349.575 336.73438 349.04376Q336.14062 348.5125 336.14062 347.6844Q336.14062 346.7 336.89062 346.15314Q337.64062 345.60626 339.01562 345.60626L340.0625 345.60626L340.0625 345.10626Q340.0625 344.54376 339.71875 344.21564Q339.39062 343.8719 338.71875 343.8719Q338.14062 343.8719 337.75 344.16876Q337.35938 344.45 337.35938 344.8719L336.26562 344.8719Q336.26562 344.3875 336.59375 343.95Q336.9375 343.5125 337.51562 343.2625Q338.09375 342.9969 338.78125 342.9969Q339.89062 342.9969 340.5 343.54376Q341.125 344.09064 341.15625 345.04376L341.15625 347.96564Q341.15625 348.84064 341.375 349.35626L341.375 349.45L340.23438 349.45ZM338.4375 348.6219Q338.95312 348.6219 339.40625 348.35626Q339.85938 348.09064 340.0625 347.66876L340.0625 346.3719L339.21875 346.3719Q337.21875 346.3719 337.21875 347.54376Q337.21875 348.04376 337.5625 348.34064Q337.90625 348.6219 338.4375 348.6219ZM345.39062 347.85626L346.875 343.10626L348.03125 343.10626L345.48438 350.4344Q344.89062 352.0125 343.60938 352.0125L343.39062 351.9969L343.0 351.91876L343.0 351.04376L343.28125 351.0594Q343.84375 351.0594 344.14062 350.84064Q344.45312 350.6219 344.65625 350.02814L344.89062 349.3719L342.625 343.10626L343.8125 343.10626L345.39062 347.85626Z" fill-rule="nonzero"/><path fill="#757575" d="M370.34982 341.84064L367.59982 341.84064L367.59982 349.45L366.49045 349.45L366.49045 341.84064L363.74045 341.84064L363.74045 340.91876L370.34982 340.91876L370.34982 341.84064ZM372.36545 343.8719Q373.0842 342.9969 374.24045 342.9969Q376.25607 342.9969 376.2717 345.2625L376.2717 349.45L375.17795 349.45L375.17795 345.2469Q375.17795 344.575 374.86545 344.2469Q374.56857 343.91876 373.91232 343.91876Q373.38107 343.91876 372.97482 344.2Q372.5842 344.48126 372.36545 344.9344L372.36545 349.45L371.28732 349.45L371.28732 340.45L372.36545 340.45L372.36545 343.8719ZM382.19357 348.825Q381.56857 349.575 380.3342 349.575Q379.31857 349.575 378.78732 348.98126Q378.25607 348.3875 378.25607 347.23126L378.25607 343.10626L379.3342 343.10626L379.3342 347.2Q379.3342 348.65314 380.50607 348.65314Q381.75607 348.65314 382.16232 347.71564L382.16232 343.10626L383.25607 343.10626L383.25607 349.45L382.22482 349.45L382.19357 348.825ZM388.34982 344.075Q388.09982 344.04376 387.81857 344.04376Q386.74045 344.04376 386.36545 344.95L386.36545 349.45L385.28732 349.45L385.28732 343.10626L386.3342 343.10626L386.34982 343.84064Q386.88107 342.9969 387.86545 342.9969Q388.17795 342.9969 388.34982 343.075L388.34982 344.075ZM392.97482 347.7625Q392.97482 347.325 392.63107 347.09064Q392.30295 346.84064 391.47482 346.66876Q390.66232 346.4969 390.17795 346.2469Q389.69357 345.9969 389.4592 345.66876Q389.24045 345.325 389.24045 344.85626Q389.24045 344.075 389.8967 343.54376Q390.55295 342.9969 391.5842 342.9969Q392.66232 342.9969 393.31857 343.5594Q393.99045 344.10626 393.99045 344.96564L392.91232 344.96564Q392.91232 344.52814 392.5217 344.21564Q392.1467 343.8875 391.5842 343.8875Q390.99045 343.8875 390.6467 344.15314Q390.31857 344.40314 390.31857 344.8094Q390.31857 345.2 390.63107 345.40314Q390.94357 345.60626 391.75607 345.79376Q392.56857 345.96564 393.06857 346.21564Q393.56857 346.46564 393.80295 346.825Q394.05295 347.1844 394.05295 347.6844Q394.05295 348.54376 393.36545 349.0594Q392.69357 349.575 391.61545 349.575Q390.84982 349.575 390.25607 349.3094Q389.67795 349.02814 389.34982 348.54376Q389.0217 348.0594 389.0217 347.4969L390.09982 347.4969Q390.13107 348.04376 390.53732 348.3719Q390.94357 348.6844 391.61545 348.6844Q392.22482 348.6844 392.59982 348.4344Q392.97482 348.1844 392.97482 347.7625ZM395.0217 346.23126Q395.0217 344.7625 395.7092 343.8875Q396.3967 342.9969 397.5217 342.9969Q398.63107 342.9969 399.28732 343.7469L399.28732 340.45L400.36545 340.45L400.36545 349.45L399.36545 349.45L399.31857 348.7625Q398.66232 349.575 397.50607 349.575Q396.41232 349.575 395.7092 348.66876Q395.0217 347.7625 395.0217 346.3094L395.0217 346.23126ZM396.09982 346.35626Q396.09982 347.4344 396.53732 348.04376Q396.99045 348.65314 397.7717 348.65314Q398.80295 348.65314 399.28732 347.71564L399.28732 344.8094Q398.80295 343.91876 397.78732 343.91876Q396.99045 343.91876 396.53732 344.52814Q396.09982 345.1375 396.09982 346.35626ZM406.19357 349.45Q406.09982 349.2625 406.03732 348.77814Q405.28732 349.575 404.24045 349.575Q403.30295 349.575 402.69357 349.04376Q402.09982 348.5125 402.09982 347.6844Q402.09982 346.7 402.84982 346.15314Q403.59982 345.60626 404.97482 345.60626L406.0217 345.60626L406.0217 345.10626Q406.0217 344.54376 405.67795 344.21564Q405.34982 343.8719 404.67795 343.8719Q404.09982 343.8719 403.7092 344.16876Q403.31857 344.45 403.31857 344.8719L402.22482 344.8719Q402.22482 344.3875 402.55295 343.95Q402.8967 343.5125 403.47482 343.2625Q404.05295 342.9969 404.74045 342.9969Q405.84982 342.9969 406.4592 343.54376Q407.0842 344.09064 407.11545 345.04376L407.11545 347.96564Q407.11545 348.84064 407.3342 349.35626L407.3342 349.45L406.19357 349.45ZM404.3967 348.6219Q404.91232 348.6219 405.36545 348.35626Q405.81857 348.09064 406.0217 347.66876L406.0217 346.3719L405.17795 346.3719Q403.17795 346.3719 403.17795 347.54376Q403.17795 348.04376 403.5217 348.34064Q403.86545 348.6219 404.3967 348.6219ZM411.34982 347.85626L412.8342 343.10626L413.99045 343.10626L411.44357 350.4344Q410.84982 352.0125 409.56857 352.0125L409.34982 351.9969L408.9592 351.91876L408.9592 351.04376L409.24045 351.0594Q409.80295 351.0594 410.09982 350.84064Q410.41232 350.6219 410.61545 350.02814L410.84982 349.3719L408.5842 343.10626L409.7717 343.10626L411.34982 347.85626Z" fill-rule="nonzero"/><path fill="#757575" d="M449.6215 345.6844L446.02774 345.6844L446.02774 349.45L444.90274 349.45L444.90274 340.91876L450.19962 340.91876L450.19962 341.84064L446.02774 341.84064L446.02774 344.7625L449.6215 344.7625L449.6215 345.6844ZM454.809 344.075Q454.559 344.04376 454.27774 344.04376Q453.19962 344.04376 452.82462 344.95L452.82462 349.45L451.7465 349.45L451.7465 343.10626L452.79337 343.10626L452.809 343.84064Q453.34024 342.9969 454.32462 342.9969Q454.63712 342.9969 454.809 343.075L454.809 344.075ZM456.91837 349.45L455.84024 349.45L455.84024 343.10626L456.91837 343.10626L456.91837 349.45ZM455.7465 341.4344Q455.7465 341.16876 455.90274 340.98126Q456.07462 340.79376 456.38712 340.79376Q456.69962 340.79376 456.85587 340.98126Q457.02774 341.16876 457.02774 341.4344Q457.02774 341.6844 456.85587 341.8719Q456.69962 342.04376 456.38712 342.04376Q456.07462 342.04376 455.90274 341.8719Q455.7465 341.6844 455.7465 341.4344ZM458.48087 346.23126Q458.48087 344.7625 459.16837 343.8875Q459.85587 342.9969 460.98087 342.9969Q462.09024 342.9969 462.7465 343.7469L462.7465 340.45L463.82462 340.45L463.82462 349.45L462.82462 349.45L462.77774 348.7625Q462.1215 349.575 460.96524 349.575Q459.8715 349.575 459.16837 348.66876Q458.48087 347.7625 458.48087 346.3094L458.48087 346.23126ZM459.559 346.35626Q459.559 347.4344 459.9965 348.04376Q460.44962 348.65314 461.23087 348.65314Q462.26212 348.65314 462.7465 347.71564L462.7465 344.8094Q462.26212 343.91876 461.2465 343.91876Q460.44962 343.91876 459.9965 344.52814Q459.559 345.1375 459.559 346.35626ZM469.65274 349.45Q469.559 349.2625 469.4965 348.77814Q468.7465 349.575 467.69962 349.575Q466.76212 349.575 466.15274 349.04376Q465.559 348.5125 465.559 347.6844Q465.559 346.7 466.309 346.15314Q467.059 345.60626 468.434 345.60626L469.48087 345.60626L469.48087 345.10626Q469.48087 344.54376 469.13712 344.21564Q468.809 343.8719 468.13712 343.8719Q467.559 343.8719 467.16837 344.16876Q466.77774 344.45 466.77774 344.8719L465.684 344.8719Q465.684 344.3875 466.01212 343.95Q466.35587 343.5125 466.934 343.2625Q467.51212 342.9969 468.19962 342.9969Q469.309 342.9969 469.91837 343.54376Q470.54337 344.09064 470.57462 345.04376L470.57462 347.96564Q470.57462 348.84064 470.79337 349.35626L470.79337 349.45L469.65274 349.45ZM467.85587 348.6219Q468.3715 348.6219 468.82462 348.35626Q469.27774 348.09064 469.48087 347.66876L469.48087 346.3719L468.63712 346.3719Q466.63712 346.3719 466.63712 347.54376Q466.63712 348.04376 466.98087 348.34064Q467.32462 348.6219 467.85587 348.6219ZM474.809 347.85626L476.29337 343.10626L477.44962 343.10626L474.90274 350.4344Q474.309 352.0125 473.02774 352.0125L472.809 351.9969L472.41837 351.91876L472.41837 351.04376L472.69962 351.0594Q473.26212 351.0594 473.559 350.84064Q473.8715 350.6219 474.07462 350.02814L474.309 349.3719L472.04337 343.10626L473.23087 343.10626L474.809 347.85626Z" fill-rule="nonzero"/><path fill="#757575" d="M511.87756 345.65314Q510.44006 345.23126 509.7682 344.6219Q509.11194 344.0125 509.11194 343.1219Q509.11194 342.1219 509.9088 341.46564Q510.7213 340.79376 512.0182 340.79376Q512.8932 340.79376 513.5807 341.1375Q514.2682 341.48126 514.6432 342.075Q515.0338 342.66876 515.0338 343.3875L513.8932 343.3875Q513.8932 342.60626 513.3932 342.16876Q512.9088 341.73126 512.0182 341.73126Q511.19006 341.73126 510.7213 342.10626Q510.25256 342.46564 510.25256 343.10626Q510.25256 343.6375 510.69006 343.9969Q511.1432 344.35626 512.2057 344.65314Q513.2682 344.95 513.86194 345.3094Q514.4713 345.66876 514.75256 346.15314Q515.04944 346.6375 515.04944 347.27814Q515.04944 348.325 514.23694 348.95Q513.42444 349.575 512.0807 349.575Q511.19006 349.575 510.42444 349.23126Q509.67444 348.8875 509.25256 348.3094Q508.8463 347.71564 508.8463 346.98126L509.9713 346.98126Q509.9713 347.7469 510.54944 348.2Q511.12756 348.65314 512.0807 348.65314Q512.9713 348.65314 513.44006 348.29376Q513.9088 347.91876 513.9088 347.29376Q513.9088 346.66876 513.4713 346.325Q513.0338 345.98126 511.87756 345.65314ZM520.11194 349.45Q520.0182 349.2625 519.9557 348.77814Q519.2057 349.575 518.1588 349.575Q517.2213 349.575 516.61194 349.04376Q516.0182 348.5125 516.0182 347.6844Q516.0182 346.7 516.7682 346.15314Q517.5182 345.60626 518.8932 345.60626L519.94006 345.60626L519.94006 345.10626Q519.94006 344.54376 519.5963 344.21564Q519.2682 343.8719 518.5963 343.8719Q518.0182 343.8719 517.62756 344.16876Q517.23694 344.45 517.23694 344.8719L516.1432 344.8719Q516.1432 344.3875 516.4713 343.95Q516.81506 343.5125 517.3932 343.2625Q517.9713 342.9969 518.6588 342.9969Q519.7682 342.9969 520.37756 343.54376Q521.00256 344.09064 521.0338 345.04376L521.0338 347.96564Q521.0338 348.84064 521.25256 349.35626L521.25256 349.45L520.11194 349.45ZM518.31506 348.6219Q518.8307 348.6219 519.2838 348.35626Q519.73694 348.09064 519.94006 347.66876L519.94006 346.3719L519.0963 346.3719Q517.0963 346.3719 517.0963 347.54376Q517.0963 348.04376 517.44006 348.34064Q517.7838 348.6219 518.31506 348.6219ZM524.67444 341.575L524.67444 343.10626L525.8463 343.10626L525.8463 343.95L524.67444 343.95L524.67444 347.8719Q524.67444 348.2625 524.8307 348.45Q524.98694 348.6375 525.36194 348.6375Q525.54944 348.6375 525.87756 348.575L525.87756 349.45Q525.4557 349.575 525.04944 349.575Q524.3307 349.575 523.9557 349.1375Q523.5807 348.6844 523.5807 347.8719L523.5807 343.95L522.42444 343.95L522.42444 343.10626L523.5807 343.10626L523.5807 341.575L524.67444 341.575ZM531.11194 348.825Q530.48694 349.575 529.25256 349.575Q528.23694 349.575 527.7057 348.98126Q527.17444 348.3875 527.17444 347.23126L527.17444 343.10626L528.25256 343.10626L528.25256 347.2Q528.25256 348.65314 529.42444 348.65314Q530.67444 348.65314 531.0807 347.71564L531.0807 343.10626L532.17444 343.10626L532.17444 349.45L531.1432 349.45L531.11194 348.825ZM537.2682 344.075Q537.0182 344.04376 536.73694 344.04376Q535.6588 344.04376 535.2838 344.95L535.2838 349.45L534.2057 349.45L534.2057 343.10626L535.25256 343.10626L535.2682 343.84064Q535.79944 342.9969 536.7838 342.9969Q537.0963 342.9969 537.2682 343.075L537.2682 344.075ZM537.94006 346.23126Q537.94006 344.7625 538.62756 343.8875Q539.31506 342.9969 540.44006 342.9969Q541.54944 342.9969 542.2057 343.7469L542.2057 340.45L543.2838 340.45L543.2838 349.45L542.2838 349.45L542.23694 348.7625Q541.5807 349.575 540.42444 349.575Q539.3307 349.575 538.62756 348.66876Q537.94006 347.7625 537.94006 346.3094L537.94006 346.23126ZM539.0182 346.35626Q539.0182 347.4344 539.4557 348.04376Q539.9088 348.65314 540.69006 348.65314Q541.7213 348.65314 542.2057 347.71564L542.2057 344.8094Q541.7213 343.91876 540.7057 343.91876Q539.9088 343.91876 539.4557 344.52814Q539.0182 345.1375 539.0182 346.35626ZM549.11194 349.45Q549.0182 349.2625 548.9557 348.77814Q548.2057 349.575 547.1588 349.575Q546.2213 349.575 545.61194 349.04376Q545.0182 348.5125 545.0182 347.6844Q545.0182 346.7 545.7682 346.15314Q546.5182 345.60626 547.8932 345.60626L548.94006 345.60626L548.94006 345.10626Q548.94006 344.54376 548.5963 344.21564Q548.2682 343.8719 547.5963 343.8719Q547.0182 343.8719 546.62756 344.16876Q546.23694 344.45 546.23694 344.8719L545.1432 344.8719Q545.1432 344.3875 545.4713 343.95Q545.81506 343.5125 546.3932 343.2625Q546.9713 342.9969 547.6588 342.9969Q548.7682 342.9969 549.37756 343.54376Q550.00256 344.09064 550.0338 345.04376L550.0338 347.96564Q550.0338 348.84064 550.25256 349.35626L550.25256 349.45L549.11194 349.45ZM547.31506 348.6219Q547.8307 348.6219 548.2838 348.35626Q548.73694 348.09064 548.94006 347.66876L548.94006 346.3719L548.0963 346.3719Q546.0963 346.3719 546.0963 347.54376Q546.0963 348.04376 546.44006 348.34064Q546.7838 348.6219 547.31506 348.6219ZM554.2682 347.85626L555.75256 343.10626L556.9088 343.10626L554.36194 350.4344Q553.7682 352.0125 552.48694 352.0125L552.2682 351.9969L551.87756 351.91876L551.87756 351.04376L552.1588 351.0594Q552.7213 351.0594 553.0182 350.84064Q553.3307 350.6219 553.5338 350.02814L553.7682 349.3719L551.50256 343.10626L552.69006 343.10626L554.2682 347.85626Z" fill-rule="nonzero"/><path fill="#4285f4" d="M228.5 57.416668C228.5 56.864384 228.94771 56.416668 229.5 56.416668L239.5 56.416668C240.05229 56.416668 240.5 56.864384 240.5 57.416668L240.5 67.416664C240.5 67.96895 240.05229 68.416664 239.5 68.416664L229.5 68.416664C228.94771 68.416664 228.5 67.96895 228.5 67.416664Z" fill-rule="nonzero"/><path fill="#757575" d="M250.34375 60.572914L250.375 61.27604Q251.0625 60.46354 252.25 60.46354Q253.57812 60.46354 254.0625 61.479164Q254.375 61.02604 254.875 60.74479Q255.39062 60.46354 256.07812 60.46354Q258.17188 60.46354 258.20312 62.666664L258.20312 66.916664L257.125 66.916664L257.125 62.729164Q257.125 62.05729 256.8125 61.729164Q256.5 61.385414 255.76562 61.385414Q255.15625 61.385414 254.75 61.74479Q254.35938 62.104164 254.29688 62.71354L254.29688 66.916664L253.21875 66.916664L253.21875 62.760414Q253.21875 61.385414 251.85938 61.385414Q250.79688 61.385414 250.40625 62.291664L250.40625 66.916664L249.3125 66.916664L249.3125 60.572914L250.34375 60.572914ZM262.95312 67.041664Q261.65625 67.041664 260.84375 66.197914Q260.04688 65.33854 260.04688 63.916664L260.04688 63.729164Q260.04688 62.77604 260.40625 62.041664Q260.76562 61.291664 261.40625 60.885414Q262.0625 60.46354 262.8125 60.46354Q264.04688 60.46354 264.73438 61.27604Q265.42188 62.08854 265.42188 63.604164L265.42188 64.05729L261.125 64.05729Q261.15625 64.99479 261.67188 65.572914Q262.20312 66.15104 263.01562 66.15104Q263.57812 66.15104 263.96875 65.916664Q264.375 65.68229 264.6875 65.291664L265.34375 65.80729Q264.54688 67.041664 262.95312 67.041664ZM262.8125 61.354164Q262.15625 61.354164 261.70312 61.83854Q261.26562 62.30729 261.17188 63.166664L264.34375 63.166664L264.34375 63.08854Q264.29688 62.260414 263.89062 61.80729Q263.5 61.354164 262.8125 61.354164ZM267.34375 60.572914L267.375 61.27604Q268.0625 60.46354 269.25 60.46354Q270.57812 60.46354 271.0625 61.479164Q271.375 61.02604 271.875 60.74479Q272.39062 60.46354 273.07812 60.46354Q275.17188 60.46354 275.20312 62.666664L275.20312 66.916664L274.125 66.916664L274.125 62.729164Q274.125 62.05729 273.8125 61.729164Q273.5 61.385414 272.76562 61.385414Q272.15625 61.385414 271.75 61.74479Q271.35938 62.104164 271.29688 62.71354L271.29688 66.916664L270.21875 66.916664L270.21875 62.760414Q270.21875 61.385414 268.85938 61.385414Q267.79688 61.385414 267.40625 62.291664L267.40625 66.916664L266.3125 66.916664L266.3125 60.572914L267.34375 60.572914ZM282.6875 63.822914Q282.6875 65.27604 282.01562 66.166664Q281.35938 67.041664 280.23438 67.041664Q279.03125 67.041664 278.375 66.18229L278.3125 66.916664L277.32812 66.916664L277.32812 57.916664L278.40625 57.916664L278.40625 61.27604Q279.0625 60.46354 280.21875 60.46354Q281.375 60.46354 282.03125 61.33854Q282.6875 62.197914 282.6875 63.729164L282.6875 63.822914ZM281.60938 63.697914Q281.60938 62.58854 281.17188 61.99479Q280.75 61.385414 279.95312 61.385414Q278.875 61.385414 278.40625 62.36979L278.40625 65.11979Q278.90625 66.11979 279.95312 66.11979Q280.73438 66.11979 281.17188 65.510414Q281.60938 64.90104 281.60938 63.697914ZM286.95312 67.041664Q285.65625 67.041664 284.84375 66.197914Q284.04688 65.33854 284.04688 63.916664L284.04688 63.729164Q284.04688 62.77604 284.40625 62.041664Q284.76562 61.291664 285.40625 60.885414Q286.0625 60.46354 286.8125 60.46354Q288.04688 60.46354 288.73438 61.27604Q289.42188 62.08854 289.42188 63.604164L289.42188 64.05729L285.125 64.05729Q285.15625 64.99479 285.67188 65.572914Q286.20312 66.15104 287.01562 66.15104Q287.57812 66.15104 287.96875 65.916664Q288.375 65.68229 288.6875 65.291664L289.34375 65.80729Q288.54688 67.041664 286.95312 67.041664ZM286.8125 61.354164Q286.15625 61.354164 285.70312 61.83854Q285.26562 62.30729 285.17188 63.166664L288.34375 63.166664L288.34375 63.08854Q288.29688 62.260414 287.89062 61.80729Q287.5 61.354164 286.8125 61.354164ZM293.39062 61.541664Q293.14062 61.510414 292.85938 61.510414Q291.78125 61.510414 291.40625 62.416664L291.40625 66.916664L290.32812 66.916664L290.32812 60.572914L291.375 60.572914L291.39062 61.30729Q291.92188 60.46354 292.90625 60.46354Q293.21875 60.46354 293.39062 60.541664L293.39062 61.541664ZM298.01562 65.229164Q298.01562 64.791664 297.67188 64.55729Q297.34375 64.30729 296.51562 64.135414Q295.70312 63.96354 295.21875 63.71354Q294.73438 63.46354 294.5 63.135414Q294.28125 62.791664 294.28125 62.322914Q294.28125 61.541664 294.9375 61.010414Q295.59375 60.46354 296.625 60.46354Q297.70312 60.46354 298.35938 61.02604Q299.03125 61.572914 299.03125 62.43229L297.95312 62.43229Q297.95312 61.99479 297.5625 61.68229Q297.1875 61.354164 296.625 61.354164Q296.03125 61.354164 295.6875 61.61979Q295.35938 61.86979 295.35938 62.27604Q295.35938 62.666664 295.67188 62.86979Q295.98438 63.072914 296.79688 63.260414Q297.60938 63.43229 298.10938 63.68229Q298.60938 63.93229 298.84375 64.291664Q299.09375 64.65104 299.09375 65.15104Q299.09375 66.010414 298.40625 66.52604Q297.73438 67.041664 296.65625 67.041664Q295.89062 67.041664 295.29688 66.77604Q294.71875 66.49479 294.39062 66.010414Q294.0625 65.52604 294.0625 64.96354L295.14062 64.96354Q295.17188 65.510414 295.57812 65.83854Q295.98438 66.15104 296.65625 66.15104Q297.26562 66.15104 297.64062 65.90104Q298.01562 65.65104 298.01562 65.229164Z" fill-rule="nonzero"/><path fill="#db4437" d="M315.5 57.416668C315.5 56.864384 315.94772 56.416668 316.5 56.416668L326.5 56.416668C327.05228 56.416668 327.5 56.864384 327.5 57.416668L327.5 67.416664C327.5 67.96895 327.05228 68.416664 326.5 68.416664L316.5 68.416664C315.94772 68.416664 315.5 67.96895 315.5 67.416664Z" fill-rule="nonzero"/><path fill="#757575" d="M338.85938 66.15104Q339.4375 66.15104 339.875 65.80729Q340.3125 65.447914 340.35938 64.916664L341.39062 64.916664Q341.35938 65.46354 341.0 65.96354Q340.65625 66.447914 340.07812 66.74479Q339.51562 67.041664 338.85938 67.041664Q337.5625 67.041664 336.79688 66.18229Q336.04688 65.30729 336.04688 63.80729L336.04688 63.61979Q336.04688 62.697914 336.375 61.979164Q336.71875 61.260414 337.34375 60.86979Q337.98438 60.46354 338.85938 60.46354Q339.92188 60.46354 340.625 61.104164Q341.34375 61.729164 341.39062 62.760414L340.35938 62.760414Q340.3125 62.135414 339.89062 61.74479Q339.46875 61.354164 338.85938 61.354164Q338.03125 61.354164 337.57812 61.947914Q337.125 62.541664 337.125 63.666664L337.125 63.86979Q337.125 64.96354 337.57812 65.55729Q338.03125 66.15104 338.85938 66.15104ZM346.23438 66.916664Q346.14062 66.729164 346.07812 66.24479Q345.32812 67.041664 344.28125 67.041664Q343.34375 67.041664 342.73438 66.510414Q342.14062 65.979164 342.14062 65.15104Q342.14062 64.166664 342.89062 63.61979Q343.64062 63.072914 345.01562 63.072914L346.0625 63.072914L346.0625 62.572914Q346.0625 62.010414 345.71875 61.68229Q345.39062 61.33854 344.71875 61.33854Q344.14062 61.33854 343.75 61.635414Q343.35938 61.916664 343.35938 62.33854L342.26562 62.33854Q342.26562 61.854164 342.59375 61.416664Q342.9375 60.979164 343.51562 60.729164Q344.09375 60.46354 344.78125 60.46354Q345.89062 60.46354 346.5 61.010414Q347.125 61.55729 347.15625 62.510414L347.15625 65.43229Q347.15625 66.30729 347.375 66.822914L347.375 66.916664L346.23438 66.916664ZM344.4375 66.08854Q344.95312 66.08854 345.40625 65.822914Q345.85938 65.55729 346.0625 65.135414L346.0625 63.83854L345.21875 63.83854Q343.21875 63.83854 343.21875 65.010414Q343.21875 65.510414 343.5625 65.80729Q343.90625 66.08854 344.4375 66.08854ZM353.01562 65.229164Q353.01562 64.791664 352.67188 64.55729Q352.34375 64.30729 351.51562 64.135414Q350.70312 63.96354 350.21875 63.71354Q349.73438 63.46354 349.5 63.135414Q349.28125 62.791664 349.28125 62.322914Q349.28125 61.541664 349.9375 61.010414Q350.59375 60.46354 351.625 60.46354Q352.70312 60.46354 353.35938 61.02604Q354.03125 61.572914 354.03125 62.43229L352.95312 62.43229Q352.95312 61.99479 352.5625 61.68229Q352.1875 61.354164 351.625 61.354164Q351.03125 61.354164 350.6875 61.61979Q350.35938 61.86979 350.35938 62.27604Q350.35938 62.666664 350.67188 62.86979Q350.98438 63.072914 351.79688 63.260414Q352.60938 63.43229 353.10938 63.68229Q353.60938 63.93229 353.84375 64.291664Q354.09375 64.65104 354.09375 65.15104Q354.09375 66.010414 353.40625 66.52604Q352.73438 67.041664 351.65625 67.041664Q350.89062 67.041664 350.29688 66.77604Q349.71875 66.49479 349.39062 66.010414Q349.0625 65.52604 349.0625 64.96354L350.14062 64.96354Q350.17188 65.510414 350.57812 65.83854Q350.98438 66.15104 351.65625 66.15104Q352.26562 66.15104 352.64062 65.90104Q353.01562 65.65104 353.01562 65.229164ZM359.23438 66.291664Q358.60938 67.041664 357.375 67.041664Q356.35938 67.041664 355.82812 66.447914Q355.29688 65.854164 355.29688 64.697914L355.29688 60.572914L356.375 60.572914L356.375 64.666664Q356.375 66.11979 357.54688 66.11979Q358.79688 66.11979 359.20312 65.18229L359.20312 60.572914L360.29688 60.572914L360.29688 66.916664L359.26562 66.916664L359.23438 66.291664ZM366.23438 66.916664Q366.14062 66.729164 366.07812 66.24479Q365.32812 67.041664 364.28125 67.041664Q363.34375 67.041664 362.73438 66.510414Q362.14062 65.979164 362.14062 65.15104Q362.14062 64.166664 362.89062 63.61979Q363.64062 63.072914 365.01562 63.072914L366.0625 63.072914L366.0625 62.572914Q366.0625 62.010414 365.71875 61.68229Q365.39062 61.33854 364.71875 61.33854Q364.14062 61.33854 363.75 61.635414Q363.35938 61.916664 363.35938 62.33854L362.26562 62.33854Q362.26562 61.854164 362.59375 61.416664Q362.9375 60.979164 363.51562 60.729164Q364.09375 60.46354 364.78125 60.46354Q365.89062 60.46354 366.5 61.010414Q367.125 61.55729 367.15625 62.510414L367.15625 65.43229Q367.15625 66.30729 367.375 66.822914L367.375 66.916664L366.23438 66.916664ZM364.4375 66.08854Q364.95312 66.08854 365.40625 65.822914Q365.85938 65.55729 366.0625 65.135414L366.0625 63.83854L365.21875 63.83854Q363.21875 63.83854 363.21875 65.010414Q363.21875 65.510414 363.5625 65.80729Q363.90625 66.08854 364.4375 66.08854ZM370.5 66.916664L369.42188 66.916664L369.42188 57.916664L370.5 57.916664L370.5 66.916664Z" fill-rule="nonzero"/><path fill="#757575" d="M20.20625 37.55L20.20625 23.33125L24.221874 23.33125Q26.065624 23.33125 27.4875 24.159374Q28.925 24.971874 29.690624 26.4875Q30.471874 28.003124 30.4875 29.95625L30.4875 30.8625Q30.4875 32.878124 29.70625 34.39375Q28.925 35.909374 27.4875 36.721874Q26.05 37.534374 24.14375 37.55L20.20625 37.55ZM22.08125 24.878124L22.08125 36.01875L24.05 36.01875Q26.221874 36.01875 27.425 34.675Q28.628124 33.315624 28.628124 30.83125L28.628124 30.003124Q28.628124 27.58125 27.4875 26.2375Q26.346874 24.89375 24.26875 24.878124L22.08125 24.878124ZM34.878124 37.55L33.08125 37.55L33.08125 26.9875L34.878124 26.9875L34.878124 37.55ZM32.925 24.175Q32.925 23.7375 33.190624 23.440624Q33.471874 23.128124 33.9875 23.128124Q34.51875 23.128124 34.784374 23.440624Q35.065624 23.7375 35.065624 24.175Q35.065624 24.6125 34.784374 24.909374Q34.51875 25.20625 33.9875 25.20625Q33.471874 25.20625 33.190624 24.909374Q32.925 24.6125 32.925 24.175ZM38.8 37.55L38.8 28.378124L37.14375 28.378124L37.14375 26.9875L38.8 26.9875L38.8 25.89375Q38.8 24.20625 39.70625 23.284374Q40.628124 22.346874 42.284374 22.346874Q42.909374 22.346874 43.51875 22.503124L43.425 23.971874Q42.971874 23.89375 42.45625 23.89375Q41.565624 23.89375 41.08125 24.409374Q40.6125 24.909374 40.6125 25.8625L40.6125 26.9875L42.8625 26.9875L42.8625 28.378124L40.6125 28.378124L40.6125 37.55L38.8 37.55ZM45.8 37.55L45.8 28.378124L44.14375 28.378124L44.14375 26.9875L45.8 26.9875L45.8 25.89375Q45.8 24.20625 46.70625 23.284374Q47.628124 22.346874 49.284374 22.346874Q49.909374 22.346874 50.51875 22.503124L50.425 23.971874Q49.971874 23.89375 49.45625 23.89375Q48.565624 23.89375 48.08125 24.409374Q47.6125 24.909374 47.6125 25.8625L47.6125 26.9875L49.8625 26.9875L49.8625 28.378124L47.6125 28.378124L47.6125 37.55L45.8 37.55ZM56.3 37.753124Q54.159374 37.753124 52.8 36.346874Q51.45625 34.925 51.45625 32.565624L51.45625 32.221874Q51.45625 30.659374 52.05 29.425Q52.659374 28.190624 53.7375 27.4875Q54.815624 26.784374 56.08125 26.784374Q58.14375 26.784374 59.284374 28.14375Q60.425 29.503124 60.425 32.034374L60.425 32.784374L53.26875 32.784374Q53.3 34.346874 54.175 35.315624Q55.05 36.26875 56.39375 36.26875Q57.3625 36.26875 58.01875 35.878124Q58.690624 35.4875 59.190624 34.846874L60.284374 35.70625Q58.95625 37.753124 56.3 37.753124ZM56.08125 28.26875Q54.9875 28.26875 54.2375 29.065624Q53.503124 29.8625 53.33125 31.3L58.6125 31.3L58.6125 31.159374Q58.534374 29.784374 57.8625 29.034374Q57.20625 28.26875 56.08125 28.26875ZM68.01875 28.596874Q67.6125 28.534374 67.14375 28.534374Q65.3625 28.534374 64.72188 30.05L64.72188 37.55L62.925 37.55L62.925 26.9875L64.675 26.9875L64.70625 28.20625Q65.59688 26.784374 67.22188 26.784374Q67.75313 26.784374 68.01875 26.925L68.01875 28.596874ZM74.3 37.753124Q72.15938 37.753124 70.8 36.346874Q69.45625 34.925 69.45625 32.565624L69.45625 32.221874Q69.45625 30.659374 70.05 29.425Q70.65938 28.190624 71.7375 27.4875Q72.81563 26.784374 74.08125 26.784374Q76.14375 26.784374 77.28438 28.14375Q78.425 29.503124 78.425 32.034374L78.425 32.784374L71.26875 32.784374Q71.3 34.346874 72.175 35.315624Q73.05 36.26875 74.39375 36.26875Q75.3625 36.26875 76.01875 35.878124Q76.69063 35.4875 77.19063 34.846874L78.28438 35.70625Q76.95625 37.753124 74.3 37.753124ZM74.08125 28.26875Q72.9875 28.26875 72.2375 29.065624Q71.50313 29.8625 71.33125 31.3L76.6125 31.3L76.6125 31.159374Q76.53438 29.784374 75.8625 29.034374Q75.20625 28.26875 74.08125 28.26875ZM82.62813 26.9875L82.69063 28.315624Q83.89375 26.784374 85.84688 26.784374Q89.20625 26.784374 89.22188 30.565624L89.22188 37.55L87.425 37.55L87.425 30.55Q87.40938 29.409374 86.89375 28.8625Q86.39375 28.315624 85.3 28.315624Q84.425 28.315624 83.75313 28.784374Q83.09688 29.253124 82.72188 30.01875L82.72188 37.55L80.925 37.55L80.925 26.9875L82.62813 26.9875ZM96.15938 36.26875Q97.12813 36.26875 97.84688 35.690624Q98.56563 35.096874 98.64375 34.221874L100.3625 34.221874Q100.3 35.128124 99.72188 35.95625Q99.15938 36.76875 98.19063 37.26875Q97.2375 37.753124 96.15938 37.753124Q94.00313 37.753124 92.72188 36.315624Q91.45625 34.8625 91.45625 32.3625L91.45625 32.065624Q91.45625 30.51875 92.01875 29.315624Q92.58125 28.1125 93.64375 27.45625Q94.70625 26.784374 96.14375 26.784374Q97.925 26.784374 99.09688 27.846874Q100.28438 28.909374 100.3625 30.6125L98.64375 30.6125Q98.56563 29.596874 97.8625 28.940624Q97.175 28.26875 96.14375 28.26875Q94.76875 28.26875 94.00313 29.26875Q93.25313 30.253124 93.25313 32.128124L93.25313 32.471874Q93.25313 34.3 94.00313 35.284374Q94.75313 36.26875 96.15938 36.26875ZM106.3 37.753124Q104.15938 37.753124 102.8 36.346874Q101.45625 34.925 101.45625 32.565624L101.45625 32.221874Q101.45625 30.659374 102.05 29.425Q102.65938 28.190624 103.7375 27.4875Q104.81563 26.784374 106.08125 26.784374Q108.14375 26.784374 109.28438 28.14375Q110.425 29.503124 110.425 32.034374L110.425 32.784374L103.26875 32.784374Q103.3 34.346874 104.175 35.315624Q105.05 36.26875 106.39375 36.26875Q107.3625 36.26875 108.01875 35.878124Q108.69063 35.4875 109.19063 34.846874L110.28438 35.70625Q108.95625 37.753124 106.3 37.753124ZM106.08125 28.26875Q104.9875 28.26875 104.2375 29.065624Q103.50313 29.8625 103.33125 31.3L108.6125 31.3L108.6125 31.159374Q108.53438 29.784374 107.8625 29.034374Q107.20625 28.26875 106.08125 28.26875ZM126.8625 32.378124Q126.8625 34.8 125.75313 36.284374Q124.64375 37.753124 122.76875 37.753124Q120.75313 37.753124 119.65938 36.33125L119.58125 37.55L117.925 37.55L117.925 22.55L119.72188 22.55L119.72188 28.14375Q120.81563 26.784374 122.7375 26.784374Q124.65938 26.784374 125.75313 28.2375Q126.8625 29.690624 126.8625 32.221874L126.8625 32.378124ZM125.05 32.175Q125.05 30.33125 124.33125 29.33125Q123.62813 28.315624 122.3 28.315624Q120.50313 28.315624 119.72188 29.9875L119.72188 34.55Q120.55 36.20625 122.31563 36.20625Q123.6125 36.20625 124.33125 35.20625Q125.05 34.20625 125.05 32.175ZM133.3 37.753124Q131.15938 37.753124 129.8 36.346874Q128.45625 34.925 128.45625 32.565624L128.45625 32.221874Q128.45625 30.659374 129.05 29.425Q129.65938 28.190624 130.7375 27.4875Q131.81563 26.784374 133.08125 26.784374Q135.14375 26.784374 136.28438 28.14375Q137.425 29.503124 137.425 32.034374L137.425 32.784374L130.26875 32.784374Q130.3 34.346874 131.175 35.315624Q132.05 36.26875 133.39375 36.26875Q134.3625 36.26875 135.01875 35.878124Q135.69063 35.4875 136.19063 34.846874L137.28438 35.70625Q135.95625 37.753124 133.3 37.753124ZM133.08125 28.26875Q131.9875 28.26875 131.2375 29.065624Q130.50313 29.8625 130.33125 31.3L135.6125 31.3L135.6125 31.159374Q135.53438 29.784374 134.8625 29.034374Q134.20625 28.26875 133.08125 28.26875ZM142.3625 24.425L142.3625 26.9875L144.34688 26.9875L144.34688 28.378124L142.3625 28.378124L142.3625 34.925Q142.3625 35.565624 142.62813 35.89375Q142.89375 36.20625 143.53438 36.20625Q143.84688 36.20625 144.39375 36.08125L144.39375 37.55Q143.675 37.753124 143.00313 37.753124Q141.8 37.753124 141.175 37.01875Q140.56563 36.284374 140.56563 34.925L140.56563 28.378124L138.64375 28.378124L138.64375 26.9875L140.56563 26.9875L140.56563 24.425L142.3625 24.425ZM156.26875 35.065624L158.3 26.9875L160.1125 26.9875L157.03438 37.55L155.56563 37.55L153.00313 29.534374L150.50313 37.55L149.03438 37.55L145.97188 26.9875L147.76875 26.9875L149.84688 34.89375L152.31563 26.9875L153.76875 26.9875L156.26875 35.065624ZM166.3 37.753124Q164.15938 37.753124 162.8 36.346874Q161.45625 34.925 161.45625 32.565624L161.45625 32.221874Q161.45625 30.659374 162.05 29.425Q162.65938 28.190624 163.7375 27.4875Q164.81563 26.784374 166.08125 26.784374Q168.14375 26.784374 169.28438 28.14375Q170.425 29.503124 170.425 32.034374L170.425 32.784374L163.26875 32.784374Q163.3 34.346874 164.175 35.315624Q165.05 36.26875 166.39375 36.26875Q167.3625 36.26875 168.01875 35.878124Q168.69063 35.4875 169.19063 34.846874L170.28438 35.70625Q168.95625 37.753124 166.3 37.753124ZM166.08125 28.26875Q164.9875 28.26875 164.2375 29.065624Q163.50313 29.8625 163.33125 31.3L168.6125 31.3L168.6125 31.159374Q168.53438 29.784374 167.8625 29.034374Q167.20625 28.26875 166.08125 28.26875ZM177.3 37.753124Q175.15938 37.753124 173.8 36.346874Q172.45625 34.925 172.45625 32.565624L172.45625 32.221874Q172.45625 30.659374 173.05 29.425Q173.65938 28.190624 174.7375 27.4875Q175.81563 26.784374 177.08125 26.784374Q179.14375 26.784374 180.28438 28.14375Q181.425 29.503124 181.425 32.034374L181.425 32.784374L174.26875 32.784374Q174.3 34.346874 175.175 35.315624Q176.05 36.26875 177.39375 36.26875Q178.3625 36.26875 179.01875 35.878124Q179.69063 35.4875 180.19063 34.846874L181.28438 35.70625Q179.95625 37.753124 177.3 37.753124ZM177.08125 28.26875Q175.9875 28.26875 175.2375 29.065624Q174.50313 29.8625 174.33125 31.3L179.6125 31.3L179.6125 31.159374Q179.53438 29.784374 178.8625 29.034374Q178.20625 28.26875 177.08125 28.26875ZM185.62813 26.9875L185.69063 28.315624Q186.89375 26.784374 188.84688 26.784374Q192.20625 26.784374 192.22188 30.565624L192.22188 37.55L190.425 37.55L190.425 30.55Q190.40938 29.409374 189.89375 28.8625Q189.39375 28.315624 188.3 28.315624Q187.425 28.315624 186.75313 28.784374Q186.09688 29.253124 185.72188 30.01875L185.72188 37.55L183.925 37.55L183.925 26.9875L185.62813 26.9875ZM201.6125 26.9875L201.65938 28.159374Q202.83125 26.784374 204.8 26.784374Q207.01875 26.784374 207.81563 28.4875Q208.34688 27.721874 209.19063 27.253124Q210.03438 26.784374 211.19063 26.784374Q214.65938 26.784374 214.72188 30.471874L214.72188 37.55L212.90938 37.55L212.90938 30.58125Q212.90938 29.440624 212.39375 28.878124Q211.87813 28.315624 210.65938 28.315624Q209.65938 28.315624 208.9875 28.925Q208.33125 29.51875 208.22188 30.534374L208.22188 37.55L206.40938 37.55L206.40938 30.628124Q206.40938 28.315624 204.14375 28.315624Q202.3625 28.315624 201.72188 29.83125L201.72188 37.55L199.90938 37.55L199.90938 26.9875L201.6125 26.9875ZM222.3 37.753124Q220.15938 37.753124 218.8 36.346874Q217.45625 34.925 217.45625 32.565624L217.45625 32.221874Q217.45625 30.659374 218.05 29.425Q218.65938 28.190624 219.7375 27.4875Q220.81563 26.784374 222.08125 26.784374Q224.14375 26.784374 225.28438 28.14375Q226.425 29.503124 226.425 32.034374L226.425 32.784374L219.26875 32.784374Q219.3 34.346874 220.175 35.315624Q221.05 36.26875 222.39375 36.26875Q223.3625 36.26875 224.01875 35.878124Q224.69063 35.4875 225.19063 34.846874L226.28438 35.70625Q224.95625 37.753124 222.3 37.753124ZM222.08125 28.26875Q220.9875 28.26875 220.2375 29.065624Q219.50313 29.8625 219.33125 31.3L224.6125 31.3L224.6125 31.159374Q224.53438 29.784374 223.8625 29.034374Q223.20625 28.26875 222.08125 28.26875ZM230.6125 26.9875L230.65938 28.159374Q231.83125 26.784374 233.8 26.784374Q236.01875 26.784374 236.81563 28.4875Q237.34688 27.721874 238.19063 27.253124Q239.03438 26.784374 240.19063 26.784374Q243.65938 26.784374 243.72188 30.471874L243.72188 37.55L241.90938 37.55L241.90938 30.58125Q241.90938 29.440624 241.39375 28.878124Q240.87813 28.315624 239.65938 28.315624Q238.65938 28.315624 237.9875 28.925Q237.33125 29.51875 237.22188 30.534374L237.22188 37.55L235.40938 37.55L235.40938 30.628124Q235.40938 28.315624 233.14375 28.315624Q231.3625 28.315624 230.72188 29.83125L230.72188 37.55L228.90938 37.55L228.90938 26.9875L230.6125 26.9875ZM255.8625 32.378124Q255.8625 34.8 254.75313 36.284374Q253.64375 37.753124 251.76875 37.753124Q249.75313 37.753124 248.65938 36.33125L248.58125 37.55L246.925 37.55L246.925 22.55L248.72188 22.55L248.72188 28.14375Q249.81563 26.784374 251.7375 26.784374Q253.65938 26.784374 254.75313 28.2375Q255.8625 29.690624 255.8625 32.221874L255.8625 32.378124ZM254.05 32.175Q254.05 30.33125 253.33125 29.33125Q252.62813 28.315624 251.3 28.315624Q249.50313 28.315624 248.72188 29.9875L248.72188 34.55Q249.55 36.20625 251.31563 36.20625Q252.6125 36.20625 253.33125 35.20625Q254.05 34.20625 254.05 32.175ZM262.3 37.753124Q260.15936 37.753124 258.8 36.346874Q257.45624 34.925 257.45624 32.565624L257.45624 32.221874Q257.45624 30.659374 258.05 29.425Q258.65936 28.190624 259.7375 27.4875Q260.8156 26.784374 262.08124 26.784374Q264.14374 26.784374 265.28436 28.14375Q266.425 29.503124 266.425 32.034374L266.425 32.784374L259.26874 32.784374Q259.3 34.346874 260.175 35.315624Q261.05 36.26875 262.39374 36.26875Q263.3625 36.26875 264.01874 35.878124Q264.6906 35.4875 265.1906 34.846874L266.28436 35.70625Q264.95624 37.753124 262.3 37.753124ZM262.08124 28.26875Q260.9875 28.26875 260.2375 29.065624Q259.5031 29.8625 259.33124 31.3L264.6125 31.3L264.6125 31.159374Q264.53436 29.784374 263.8625 29.034374Q263.20624 28.26875 262.08124 28.26875ZM274.01874 28.596874Q273.6125 28.534374 273.14374 28.534374Q271.3625 28.534374 270.72186 30.05L270.72186 37.55L268.925 37.55L268.925 26.9875L270.675 26.9875L270.70624 28.20625Q271.59686 26.784374 273.22186 26.784374Q273.7531 26.784374 274.01874 26.925L274.01874 28.596874ZM282.0656 34.753124Q282.0656 34.01875 281.51874 33.6125Q280.97186 33.20625 279.59686 32.909374Q278.22186 32.6125 277.40936 32.20625Q276.6125 31.8 276.22186 31.2375Q275.84686 30.659374 275.84686 29.878124Q275.84686 28.58125 276.9406 27.690624Q278.03436 26.784374 279.7531 26.784374Q281.55 26.784374 282.65936 27.721874Q283.78436 28.64375 283.78436 30.08125L281.95624 30.08125Q281.95624 29.346874 281.33124 28.815624Q280.70624 28.26875 279.7531 28.26875Q278.7531 28.26875 278.1906 28.70625Q277.64374 29.128124 277.64374 29.83125Q277.64374 30.471874 278.15936 30.815624Q278.675 31.14375 280.03436 31.45625Q281.39374 31.753124 282.22186 32.175Q283.0656 32.58125 283.47186 33.175Q283.8781 33.76875 283.8781 34.6125Q283.8781 36.034374 282.7375 36.89375Q281.6125 37.753124 279.8 37.753124Q278.53436 37.753124 277.55 37.3Q276.58124 36.846874 276.01874 36.05Q275.47186 35.2375 275.47186 34.3L277.28436 34.3Q277.33124 35.20625 278.0031 35.7375Q278.6906 36.26875 279.8 36.26875Q280.83124 36.26875 281.4406 35.8625Q282.0656 35.440624 282.0656 34.753124ZM297.4406 37.55Q297.28436 37.2375 297.1906 36.440624Q295.925 37.753124 294.175 37.753124Q292.6125 37.753124 291.6125 36.8625Q290.6125 35.971874 290.6125 34.6125Q290.6125 32.971874 291.8625 32.065624Q293.1281 31.14375 295.39374 31.14375L297.15936 31.14375L297.15936 30.315624Q297.15936 29.3625 296.58124 28.8Q296.01874 28.2375 294.925 28.2375Q293.95624 28.2375 293.3 28.7375Q292.64374 29.221874 292.64374 29.909374L290.83124 29.909374Q290.83124 29.128124 291.39374 28.39375Q291.95624 27.64375 292.90936 27.221874Q293.8781 26.784374 295.03436 26.784374Q296.8625 26.784374 297.89374 27.70625Q298.925 28.6125 298.97186 30.221874L298.97186 35.08125Q298.97186 36.534374 299.33124 37.39375L299.33124 37.55L297.4406 37.55ZM294.4406 36.175Q295.3 36.175 296.05 35.7375Q296.8156 35.3 297.15936 34.596874L297.15936 32.425L295.7375 32.425Q292.425 32.425 292.425 34.3625Q292.425 35.221874 292.9875 35.70625Q293.55 36.175 294.4406 36.175ZM303.6281 26.9875L303.6906 28.315624Q304.89374 26.784374 306.84686 26.784374Q310.20624 26.784374 310.22186 30.565624L310.22186 37.55L308.425 37.55L308.425 30.55Q308.40936 29.409374 307.89374 28.8625Q307.39374 28.315624 306.3 28.315624Q305.425 28.315624 304.7531 28.784374Q304.09686 29.253124 303.72186 30.01875L303.72186 37.55L301.925 37.55L301.925 26.9875L303.6281 26.9875ZM312.47186 32.175Q312.47186 29.753124 313.6281 28.26875Q314.78436 26.784374 316.64374 26.784374Q318.5031 26.784374 319.58124 28.05L319.58124 22.55L321.39374 22.55L321.39374 37.55L319.7375 37.55L319.64374 36.409374Q318.5656 37.753124 316.6281 37.753124Q314.8 37.753124 313.6281 36.253124Q312.47186 34.7375 312.47186 32.315624L312.47186 32.175ZM314.28436 32.378124Q314.28436 34.175 315.01874 35.190624Q315.76874 36.20625 317.08124 36.20625Q318.8 36.20625 319.58124 34.675L319.58124 29.815624Q318.78436 28.315624 317.09686 28.315624Q315.76874 28.315624 315.01874 29.346874Q314.28436 30.378124 314.28436 32.378124ZM333.15936 36.26875Q334.1281 36.26875 334.84686 35.690624Q335.5656 35.096874 335.64374 34.221874L337.3625 34.221874Q337.3 35.128124 336.72186 35.95625Q336.15936 36.76875 335.1906 37.26875Q334.2375 37.753124 333.15936 37.753124Q331.0031 37.753124 329.72186 36.315624Q328.45624 34.8625 328.45624 32.3625L328.45624 32.065624Q328.45624 30.51875 329.01874 29.315624Q329.58124 28.1125 330.64374 27.45625Q331.70624 26.784374 333.14374 26.784374Q334.925 26.784374 336.09686 27.846874Q337.28436 28.909374 337.3625 30.6125L335.64374 30.6125Q335.5656 29.596874 334.8625 28.940624Q334.175 28.26875 333.14374 28.26875Q331.76874 28.26875 331.0031 29.26875Q330.2531 30.253124 330.2531 32.128124L330.2531 32.471874Q330.2531 34.3 331.0031 35.284374Q331.7531 36.26875 333.15936 36.26875ZM345.4406 37.55Q345.28436 37.2375 345.1906 36.440624Q343.925 37.753124 342.175 37.753124Q340.6125 37.753124 339.6125 36.8625Q338.6125 35.971874 338.6125 34.6125Q338.6125 32.971874 339.8625 32.065624Q341.1281 31.14375 343.39374 31.14375L345.15936 31.14375L345.15936 30.315624Q345.15936 29.3625 344.58124 28.8Q344.01874 28.2375 342.925 28.2375Q341.95624 28.2375 341.3 28.7375Q340.64374 29.221874 340.64374 29.909374L338.83124 29.909374Q338.83124 29.128124 339.39374 28.39375Q339.95624 27.64375 340.90936 27.221874Q341.8781 26.784374 343.03436 26.784374Q344.8625 26.784374 345.89374 27.70625Q346.925 28.6125 346.97186 30.221874L346.97186 35.08125Q346.97186 36.534374 347.33124 37.39375L347.33124 37.55L345.4406 37.55ZM342.4406 36.175Q343.3 36.175 344.05 35.7375Q344.8156 35.3 345.15936 34.596874L345.15936 32.425L343.7375 32.425Q340.425 32.425 340.425 34.3625Q340.425 35.221874 340.9875 35.70625Q341.55 36.175 342.4406 36.175ZM356.0656 34.753124Q356.0656 34.01875 355.51874 33.6125Q354.97186 33.20625 353.59686 32.909374Q352.22186 32.6125 351.40936 32.20625Q350.6125 31.8 350.22186 31.2375Q349.84686 30.659374 349.84686 29.878124Q349.84686 28.58125 350.9406 27.690624Q352.03436 26.784374 353.7531 26.784374Q355.55 26.784374 356.65936 27.721874Q357.78436 28.64375 357.78436 30.08125L355.95624 30.08125Q355.95624 29.346874 355.33124 28.815624Q354.70624 28.26875 353.7531 28.26875Q352.7531 28.26875 352.1906 28.70625Q351.64374 29.128124 351.64374 29.83125Q351.64374 30.471874 352.15936 30.815624Q352.675 31.14375 354.03436 31.45625Q355.39374 31.753124 356.22186 32.175Q357.0656 32.58125 357.47186 33.175Q357.8781 33.76875 357.8781 34.6125Q357.8781 36.034374 356.7375 36.89375Q355.6125 37.753124 353.8 37.753124Q352.53436 37.753124 351.55 37.3Q350.58124 36.846874 350.01874 36.05Q349.47186 35.2375 349.47186 34.3L351.28436 34.3Q351.33124 35.20625 352.0031 35.7375Q352.6906 36.26875 353.8 36.26875Q354.83124 36.26875 355.4406 35.8625Q356.0656 35.440624 356.0656 34.753124ZM366.4406 36.503124Q365.39374 37.753124 363.34686 37.753124Q361.65936 37.753124 360.76874 36.76875Q359.89374 35.784374 359.8781 33.8625L359.8781 26.9875L361.6906 26.9875L361.6906 33.815624Q361.6906 36.20625 363.64374 36.20625Q365.70624 36.20625 366.39374 34.675L366.39374 26.9875L368.20624 26.9875L368.20624 37.55L366.4875 37.55L366.4406 36.503124ZM377.4406 37.55Q377.28436 37.2375 377.1906 36.440624Q375.925 37.753124 374.175 37.753124Q372.6125 37.753124 371.6125 36.8625Q370.6125 35.971874 370.6125 34.6125Q370.6125 32.971874 371.8625 32.065624Q373.1281 31.14375 375.39374 31.14375L377.15936 31.14375L377.15936 30.315624Q377.15936 29.3625 376.58124 28.8Q376.01874 28.2375 374.925 28.2375Q373.95624 28.2375 373.3 28.7375Q372.64374 29.221874 372.64374 29.909374L370.83124 29.909374Q370.83124 29.128124 371.39374 28.39375Q371.95624 27.64375 372.90936 27.221874Q373.8781 26.784374 375.03436 26.784374Q376.8625 26.784374 377.89374 27.70625Q378.925 28.6125 378.97186 30.221874L378.97186 35.08125Q378.97186 36.534374 379.33124 37.39375L379.33124 37.55L377.4406 37.55ZM374.4406 36.175Q375.3 36.175 376.05 35.7375Q376.8156 35.3 377.15936 34.596874L377.15936 32.425L375.7375 32.425Q372.425 32.425 372.425 34.3625Q372.425 35.221874 372.9875 35.70625Q373.55 36.175 374.4406 36.175ZM383.8781 37.55L382.08124 37.55L382.08124 22.55L383.8781 22.55L383.8781 37.55ZM393.0656 34.753124Q393.0656 34.01875 392.51874 33.6125Q391.97186 33.20625 390.59686 32.909374Q389.22186 32.6125 388.40936 32.20625Q387.6125 31.8 387.22186 31.2375Q386.84686 30.659374 386.84686 29.878124Q386.84686 28.58125 387.9406 27.690624Q389.03436 26.784374 390.7531 26.784374Q392.55 26.784374 393.65936 27.721874Q394.78436 28.64375 394.78436 30.08125L392.95624 30.08125Q392.95624 29.346874 392.33124 28.815624Q391.70624 28.26875 390.7531 28.26875Q389.7531 28.26875 389.1906 28.70625Q388.64374 29.128124 388.64374 29.83125Q388.64374 30.471874 389.15936 30.815624Q389.675 31.14375 391.03436 31.45625Q392.39374 31.753124 393.22186 32.175Q394.0656 32.58125 394.47186 33.175Q394.8781 33.76875 394.8781 34.6125Q394.8781 36.034374 393.7375 36.89375Q392.6125 37.753124 390.8 37.753124Q389.53436 37.753124 388.55 37.3Q387.58124 36.846874 387.01874 36.05Q386.47186 35.2375 386.47186 34.3L388.28436 34.3Q388.33124 35.20625 389.0031 35.7375Q389.6906 36.26875 390.8 36.26875Q391.83124 36.26875 392.4406 35.8625Q393.0656 35.440624 393.0656 34.753124Z" fill-rule="nonzero"/></svg>